<?xml version="1.0" standalone="no"?>
<!DOCTYPE svg PUBLIC "-//W3C//DTD SVG 20010904//EN"
 "http://www.w3.org/TR/2001/REC-SVG-20010904/DTD/svg10.dtd">
<svg version="1.0" xmlns="http://www.w3.org/2000/svg"
 width="1280.000000pt" height="642.000000pt" viewBox="0 0 1280.000000 642.000000"
 preserveAspectRatio="xMidYMid meet">
<metadata>
Created by potrace 1.15, written by Peter Selinger 2001-2017
</metadata>
<g transform="translate(0.000000,642.000000) scale(0.100000,-0.100000)"
fill="#000000" stroke="none">
<path d="M6370 6410 c-10 -6 -11 -10 -2 -10 9 0 12 -185 12 -890 l0 -889 -100
-130 -101 -129 -62 -6 c-87 -7 -373 -36 -427 -42 l-46 -6 -104 586 -103 586
28 30 c16 17 32 30 35 30 4 0 12 -35 18 -77 7 -42 14 -79 17 -81 13 -13 13 11
0 93 l-15 89 32 33 c17 18 34 30 39 28 4 -3 10 -36 14 -75 4 -39 11 -73 16
-76 12 -7 11 22 -2 108 l-11 70 33 34 c39 41 42 37 53 -68 4 -38 12 -68 18
-68 7 0 8 14 5 38 -3 20 -9 64 -12 97 -7 59 -6 61 28 94 41 38 41 38 52 -71 4
-38 11 -68 17 -68 6 0 8 13 5 33 -3 17 -9 61 -12 97 -7 65 -6 65 29 99 20 19
38 33 40 30 2 -2 9 -60 16 -129 6 -69 14 -127 16 -129 11 -12 11 16 0 144
l-12 139 35 39 c43 47 51 38 51 -60 0 -43 5 -75 12 -79 8 -5 9 19 4 97 l-6
105 38 37 c21 21 41 34 45 31 4 -4 7 -42 7 -85 0 -48 4 -81 12 -85 8 -5 10 19
4 96 l-6 104 37 38 c20 21 41 38 45 38 4 0 8 -40 8 -90 0 -57 4 -90 11 -90 7
0 9 36 8 105 l-3 106 42 42 42 42 1 -60 c3 -154 19 -179 19 -30 l0 109 33 35
c17 20 29 34 25 31 -16 -11 -6294 -6277 -6323 -6311 -13 -15 -7 -12 16 7 37
31 37 31 131 26 65 -3 97 -1 102 7 5 8 -19 11 -83 11 -50 0 -91 4 -91 8 0 4
18 25 39 46 l40 39 95 -6 c54 -3 98 -1 101 4 4 5 -21 10 -57 10 -35 1 -76 4
-91 8 l-28 6 40 39 40 39 100 -6 c56 -3 101 -2 101 2 0 5 -41 12 -91 16 l-91
7 38 40 39 40 104 -7 c74 -5 102 -4 97 4 -4 6 -28 11 -54 12 -26 0 -64 3 -85
7 l-38 7 39 38 40 39 108 -11 c133 -14 184 -14 165 -2 -8 5 -64 12 -125 16
-61 4 -115 10 -119 12 -5 3 6 21 25 40 l33 34 100 -5 c66 -4 93 -3 80 3 -11 5
-40 10 -65 11 -25 1 -55 5 -68 8 -23 7 -23 7 12 41 l36 35 91 -10 c50 -5 93
-6 95 -2 5 7 -26 14 -110 23 l-58 7 33 35 c37 38 32 37 183 17 34 -5 47 -4 43
3 -4 6 -35 14 -69 18 -100 12 -104 15 -65 53 l34 33 89 -15 c49 -8 91 -12 93
-10 10 9 -11 16 -81 26 -40 6 -75 12 -77 14 -10 9 54 64 73 64 29 0 1158 -199
1164 -205 3 -2 -3 -60 -12 -127 -9 -68 -16 -132 -16 -144 0 -19 9 -22 148 -35
81 -8 154 -14 162 -14 12 0 19 30 33 140 55 434 174 827 369 1215 185 369 409
685 708 994 728 756 1578 1155 2617 1230 73 5 64 12 198 -167 44 -59 82 -107
85 -106 3 0 48 56 100 125 52 69 102 131 110 138 32 29 471 -23 755 -89 750
-174 1450 -592 2005 -1196 584 -636 920 -1352 1023 -2177 7 -56 16 -103 20
-104 21 -4 297 26 308 33 11 7 11 31 -4 145 -9 76 -15 139 -12 142 2 3 264 51
582 107 l578 102 35 -31 c41 -36 37 -39 -50 -51 -30 -4 -62 -12 -70 -17 -15
-9 19 -7 130 7 40 5 48 3 78 -25 19 -17 32 -33 30 -35 -2 -3 -39 -10 -81 -16
-42 -6 -77 -16 -77 -21 0 -6 13 -8 30 -5 16 4 59 9 95 13 63 7 67 6 95 -21 17
-16 30 -32 30 -36 0 -4 -33 -10 -74 -14 -40 -4 -79 -11 -87 -17 -14 -9 139 -2
166 8 13 5 85 -51 85 -66 0 -5 -30 -11 -67 -15 -117 -11 -119 -25 -3 -19 l105
6 33 -35 c33 -34 33 -34 10 -40 -13 -3 -71 -9 -131 -13 -59 -4 -110 -11 -113
-15 -7 -12 23 -11 168 2 l120 11 34 -33 c19 -18 34 -36 34 -40 0 -4 -38 -10
-85 -14 -120 -10 -106 -25 15 -18 l101 6 34 -33 c19 -19 35 -38 35 -42 0 -4
-21 -8 -47 -9 -49 -1 -146 -15 -128 -19 6 -1 55 -1 110 0 l100 1 40 -40 39
-41 -49 -1 c-28 0 -72 -4 -100 -9 -42 -6 -32 -8 60 -9 l111 -1 37 -38 c20 -21
37 -41 37 -45 0 -4 -40 -7 -90 -7 -60 0 -90 -4 -90 -11 0 -8 29 -10 101 -7 89
4 103 3 125 -15 14 -11 30 -29 34 -41 6 -13 9 -15 9 -6 1 15 -992 1015 -1007
1015 -29 -2 -159 -30 -166 -37 -14 -12 29 -9 104 7 l65 14 30 -27 c16 -15 32
-28 34 -29 2 -2 2 -5 0 -8 -6 -5 -1151 -207 -1154 -203 -1 2 -10 44 -19 93
-28 146 -83 361 -126 494 -22 68 -39 126 -37 128 2 1 138 52 303 112 l299 108
28 -25 c15 -14 27 -22 27 -17 0 4 -43 51 -96 102 l-95 95 -67 -28 c-114 -47
-112 -62 3 -19 l68 26 23 -22 c13 -13 24 -25 24 -28 0 -4 -29 -17 -65 -29 -36
-13 -65 -28 -65 -33 0 -13 3 -12 72 16 76 31 79 31 108 0 l23 -24 -24 -9 c-13
-5 -121 -44 -239 -87 -118 -42 -243 -88 -276 -100 l-61 -23 -38 96 c-57 143
-130 301 -208 446 -54 101 -66 130 -56 137 8 5 74 43 147 85 129 75 133 76
152 59 11 -10 20 -22 20 -26 0 -4 -27 -22 -60 -40 -33 -17 -57 -35 -55 -40 3
-4 33 8 66 27 34 19 64 34 68 34 9 0 41 -34 41 -43 0 -4 -28 -21 -62 -38 -35
-18 -58 -34 -51 -36 6 -2 39 10 73 27 l62 31 25 -22 24 -23 -68 -35 c-37 -19
-63 -36 -56 -38 6 -2 39 10 74 27 l62 32 25 -26 26 -25 -70 -32 c-38 -18 -63
-34 -56 -36 7 -3 41 9 76 25 l64 30 23 -24 c12 -13 21 -25 18 -27 -2 -2 -46
-23 -96 -47 -51 -24 -93 -47 -93 -52 0 -12 5 -11 78 25 119 59 130 62 152 42
11 -10 20 -22 20 -26 0 -4 -27 -20 -60 -35 -33 -15 -60 -31 -60 -35 0 -5 16
-2 35 6 119 51 105 49 133 21 l25 -25 -58 -25 c-31 -14 -61 -26 -66 -26 -5 0
-9 -4 -9 -10 0 -14 3 -13 80 19 67 29 69 29 86 10 9 -10 20 -19 25 -19 4 0
-761 767 -1699 1704 -939 938 -1709 1703 -1711 1700 -3 -2 7 -16 21 -30 l25
-26 -18 -76 c-22 -90 -22 -92 -10 -92 5 0 17 34 26 75 9 41 19 75 23 74 4 0
18 -14 31 -31 l25 -31 -20 -79 c-11 -43 -17 -81 -13 -84 5 -2 12 12 18 33 5
21 15 57 20 80 l11 41 31 -30 30 -31 -30 -114 c-33 -122 -37 -143 -22 -127 5
5 21 54 36 109 15 55 29 103 32 107 2 4 16 -3 31 -17 l27 -25 -19 -72 c-10
-40 -21 -79 -23 -85 -3 -7 -1 -13 4 -13 6 0 20 34 32 75 l22 75 30 -28 30 -28
-21 -68 c-12 -38 -24 -75 -27 -82 -3 -8 -1 -14 5 -14 6 0 20 32 31 70 12 39
25 70 30 70 4 0 17 -11 29 -23 l22 -24 -21 -68 c-11 -37 -23 -74 -26 -81 -3
-8 -1 -14 4 -14 5 0 19 32 32 70 12 39 26 70 30 70 4 0 17 -10 29 -23 l22 -23
-25 -74 c-40 -117 -27 -127 15 -12 12 34 26 62 30 62 5 0 17 -11 28 -25 l20
-25 -111 -302 c-61 -167 -111 -304 -111 -305 -1 -1 -51 14 -111 33 -135 42
-434 118 -532 134 -47 8 -73 16 -73 25 0 18 199 1137 203 1141 2 2 17 -11 35
-29 l31 -32 -14 -65 c-8 -36 -14 -76 -15 -89 0 -45 14 -11 31 72 l17 82 -76
77 c-42 43 -78 75 -81 73 -2 -3 8 -18 22 -33 15 -16 27 -37 27 -47 0 -24 -199
-1148 -204 -1153 -3 -2 -62 3 -133 12 -124 16 -337 36 -379 36 -15 0 -50 38
-122 129 l-102 130 0 890 c0 726 2 891 13 891 7 0 27 -15 45 -33 32 -33 32
-34 32 -137 0 -57 3 -100 8 -96 9 10 9 11 11 103 l1 77 46 -44 46 -45 -7 -96
c-4 -59 -3 -99 3 -103 6 -3 11 35 14 96 l4 101 -61 60 c-132 131 -155 146
-185 127z m-845 -1533 l101 -572 -30 -7 c-17 -4 -107 -23 -201 -44 -93 -20
-233 -57 -310 -81 -77 -25 -149 -47 -160 -49 -18 -4 -31 25 -127 293 -60 164
-108 303 -108 309 0 15 47 57 53 47 2 -4 12 -33 22 -63 10 -30 21 -59 26 -65
16 -16 10 22 -11 77 -26 68 -25 80 5 108 l24 23 11 -29 c6 -16 17 -48 23 -71
6 -24 15 -43 19 -43 12 0 10 11 -12 75 -26 75 -25 87 5 115 l24 23 11 -27 c5
-15 15 -47 21 -72 6 -24 15 -44 20 -44 12 0 12 2 -13 86 l-21 74 23 25 c13 14
26 25 30 25 3 0 14 -31 25 -70 11 -38 23 -70 27 -70 11 0 11 5 -13 88 l-21 74
23 24 c12 13 26 24 30 24 4 0 15 -25 23 -55 39 -138 50 -169 53 -153 2 9 -7
58 -21 110 -32 115 -32 129 -1 158 l24 23 9 -24 c5 -13 15 -48 22 -76 6 -29
16 -53 22 -53 5 0 7 8 4 18 -3 9 -13 48 -22 85 l-17 68 29 30 c33 35 38 30 55
-58 7 -35 16 -63 21 -63 11 0 11 3 -9 93 l-17 78 31 31 31 30 17 -81 c10 -44
22 -81 26 -81 12 0 11 4 -6 75 -21 88 -19 107 14 139 l29 28 12 -59 c19 -94
22 -103 32 -103 6 0 8 6 5 13 -3 8 -11 48 -18 90 l-13 77 29 30 c16 16 31 27
34 25 2 -3 50 -263 106 -578z m2617 -270 c-33 -86 -36 -97 -25 -97 5 0 20 29
32 65 13 36 27 67 31 70 4 2 17 -7 30 -20 l23 -24 -31 -76 c-17 -42 -26 -75
-21 -73 6 2 22 31 36 63 14 33 27 62 29 64 8 8 44 -33 44 -49 0 -10 -11 -43
-25 -75 -14 -32 -24 -63 -22 -69 4 -10 31 42 58 113 l10 25 26 -27 26 -26 -27
-63 c-39 -89 -39 -88 -29 -88 6 0 22 29 38 65 15 36 30 65 33 65 12 0 42 -34
42 -47 0 -7 -20 -57 -45 -110 -49 -106 -49 -103 -36 -103 4 0 29 46 55 102
l47 101 26 -25 25 -25 -32 -62 c-17 -35 -29 -68 -27 -74 2 -7 18 16 36 51 17
34 35 62 40 62 4 0 16 -9 25 -19 16 -18 16 -22 -14 -81 -17 -34 -29 -67 -27
-73 2 -7 18 16 36 51 17 34 35 62 40 62 4 0 16 -9 27 -21 18 -20 18 -22 -19
-90 -21 -38 -34 -69 -28 -69 5 0 24 26 42 58 18 31 34 59 36 61 2 3 14 -5 26
-18 l22 -22 -38 -69 c-43 -81 -32 -96 13 -17 16 28 31 57 33 62 5 12 47 -23
47 -38 0 -8 -153 -281 -165 -295 -2 -2 -49 22 -105 54 -119 66 -357 177 -483
224 -70 26 -87 36 -82 49 7 17 191 518 207 564 l11 29 26 -26 26 -26 -23 -63z
m-3358 -201 c58 -160 103 -293 99 -296 -5 -4 -46 -22 -93 -40 -143 -57 -319
-138 -442 -206 -64 -35 -121 -64 -125 -64 -4 0 -46 66 -92 146 -81 140 -83
146 -66 164 10 11 22 20 26 20 4 0 22 -27 40 -59 18 -33 36 -58 41 -55 4 3 -9
34 -29 70 l-35 65 23 25 23 24 36 -65 c20 -36 39 -62 43 -59 4 4 -9 36 -29 72
l-36 64 23 24 24 23 34 -64 c19 -35 38 -62 43 -59 4 3 -8 35 -28 71 l-37 65
26 25 26 26 32 -66 c18 -36 36 -64 41 -61 4 3 -8 36 -27 73 l-34 68 23 22 c12
11 25 21 28 21 3 0 24 -43 48 -95 24 -52 47 -95 53 -95 11 0 11 -1 -44 118
l-42 93 25 25 25 26 28 -66 c15 -36 32 -66 37 -66 12 0 11 1 -22 76 l-31 68
25 25 25 25 32 -70 c18 -38 34 -64 36 -58 2 6 -8 37 -22 69 -31 70 -31 76 -2
103 l24 22 27 -70 c15 -38 32 -68 36 -65 5 3 -5 38 -21 77 l-29 71 22 24 c12
13 25 23 29 23 4 0 17 -29 30 -65 12 -36 26 -65 31 -65 11 0 11 1 -18 80 l-27
71 24 25 c12 13 26 21 30 17 4 -5 55 -138 113 -297z m4006 -369 c0 -5 -16 -36
-36 -69 -20 -32 -33 -62 -30 -65 7 -7 4 -11 46 57 19 30 35 57 37 59 5 7 43
-31 43 -43 0 -6 -16 -35 -36 -64 -19 -29 -33 -58 -31 -65 2 -7 21 16 43 51 21
34 42 62 45 62 3 0 14 -9 24 -20 17 -19 17 -22 -20 -81 -47 -77 -39 -89 11
-15 20 31 40 56 44 56 4 0 15 -9 25 -20 17 -19 17 -21 -21 -77 -46 -69 -48
-73 -36 -73 5 0 26 25 46 55 20 30 40 55 45 55 4 0 16 -9 26 -19 17 -19 15
-23 -45 -106 -34 -47 -60 -90 -58 -96 2 -6 33 30 68 80 l64 91 23 -22 23 -21
-46 -64 c-55 -77 -41 -84 17 -8 40 53 43 55 60 39 26 -23 25 -27 -21 -88 -22
-29 -40 -56 -40 -59 0 -18 19 -1 54 48 22 30 43 55 46 55 4 0 15 -9 25 -20 17
-18 16 -21 -28 -77 -25 -31 -44 -60 -41 -63 3 -3 28 20 54 50 l49 55 20 -20
21 -20 -45 -55 c-24 -30 -44 -58 -45 -62 -1 -19 19 -4 59 48 41 53 44 54 62
38 10 -9 19 -22 19 -27 0 -5 -26 -40 -57 -76 -31 -36 -60 -70 -64 -74 -3 -5
-53 29 -110 75 -126 101 -272 205 -397 283 -50 31 -94 60 -96 64 -3 5 46 93
142 255 22 37 23 38 42 21 11 -10 20 -22 20 -28z m-4670 -108 c45 -78 78 -144
73 -148 -4 -4 -62 -43 -128 -86 -148 -95 -230 -155 -362 -261 l-101 -82 -67
80 -67 80 21 22 22 21 22 -25 c12 -14 32 -38 45 -54 12 -16 25 -26 29 -23 3 4
-14 32 -37 62 l-43 56 21 22 22 21 17 -24 c30 -42 71 -85 77 -80 3 3 -15 31
-39 61 l-44 56 23 22 22 21 40 -55 c35 -49 54 -66 54 -48 0 3 -18 31 -41 60
-39 52 -40 55 -23 74 9 10 20 19 25 19 4 0 23 -22 43 -50 20 -27 41 -50 46
-50 6 0 -8 27 -31 60 -42 58 -42 60 -24 80 10 11 21 20 24 20 3 0 33 -39 66
-86 33 -47 61 -80 63 -75 2 6 -22 46 -52 90 -31 43 -56 83 -56 88 0 6 9 18 19
27 19 17 21 16 57 -38 20 -31 41 -56 45 -56 15 0 10 10 -24 59 -49 67 -49 66
-23 90 l23 22 39 -60 c21 -33 42 -57 46 -55 4 3 -10 32 -33 65 l-41 61 23 24
23 24 40 -62 c22 -35 41 -58 43 -51 2 6 -12 37 -32 68 -35 54 -36 57 -19 76 9
10 21 19 26 19 7 0 62 -80 71 -105 3 -5 8 -7 12 -3 4 4 -10 34 -30 68 -36 59
-36 62 -20 81 10 10 22 19 26 19 4 0 44 -63 89 -141z m-598 -507 l66 -78 -130
-124 -129 -123 -70 69 c-69 68 -69 68 -49 88 20 20 20 20 68 -27 66 -65 75
-59 13 9 l-51 56 22 18 c23 19 23 19 76 -33 64 -63 68 -54 7 16 l-45 52 21 20
20 20 45 -47 c61 -64 78 -61 20 3 -25 28 -46 54 -46 59 0 15 41 44 48 33 18
-28 84 -94 89 -89 3 3 -15 30 -40 59 l-46 54 22 21 c12 12 22 22 23 22 0 0 30
-35 66 -78z m5833 58 c17 -18 16 -21 -29 -72 -64 -73 -57 -86 7 -15 l53 58 21
-23 21 -23 -48 -55 c-64 -71 -53 -81 12 -11 l49 54 21 -21 21 -21 -46 -51
c-65 -72 -59 -86 8 -20 53 53 55 53 74 35 20 -18 20 -18 -30 -76 -62 -72 -52
-78 16 -9 46 47 50 49 67 33 10 -9 18 -21 18 -27 0 -6 -28 -38 -62 -73 l-61
-62 -100 92 c-55 51 -116 106 -135 123 l-36 31 63 76 c35 43 67 77 71 77 4 0
15 -9 25 -20z m-6047 -401 c-2 -3 -58 -63 -125 -133 l-121 -127 -74 62 c-40
35 -75 64 -77 66 -3 2 5 13 17 25 l21 22 50 -42 c71 -60 85 -52 18 11 l-57 52
24 17 c24 17 25 17 76 -28 28 -26 53 -44 57 -41 3 4 -18 27 -46 53 -49 44 -51
47 -35 65 9 11 21 19 26 19 5 0 31 -21 58 -46 28 -26 50 -41 50 -34 0 6 -21
31 -47 55 l-48 44 22 22 23 23 50 -49 c27 -27 52 -47 55 -44 2 3 -18 27 -45
54 l-50 49 22 23 22 24 68 -68 c37 -37 67 -70 66 -74z m6328 120 c19 -21 19
-21 -36 -69 -30 -27 -52 -52 -47 -56 4 -4 29 13 55 39 53 52 62 55 86 28 16
-18 14 -21 -35 -65 -28 -26 -49 -50 -45 -53 3 -4 29 15 56 42 l50 49 23 -22
22 -23 -55 -49 c-30 -26 -52 -51 -48 -55 4 -4 29 14 56 39 27 25 54 46 59 46
5 0 18 -8 27 -19 16 -18 14 -21 -35 -65 -28 -26 -49 -49 -46 -52 3 -4 30 14
59 40 49 43 53 44 70 29 10 -9 18 -21 17 -27 -1 -14 -137 -128 -148 -124 -4 2
-61 61 -126 131 l-118 128 64 65 c35 35 66 64 70 64 3 0 14 -9 25 -21z m-6665
-325 c43 -36 79 -67 79 -69 0 -2 -38 -51 -84 -108 -101 -126 -220 -293 -289
-404 -27 -46 -53 -83 -57 -83 -14 0 -290 161 -290 169 0 4 9 16 20 26 19 17
21 16 81 -19 34 -20 66 -35 72 -33 6 2 -17 20 -51 41 -34 21 -62 41 -62 45 0
4 9 16 19 26 19 16 22 16 79 -19 81 -49 102 -45 24 5 -54 34 -61 42 -52 59 18
33 28 32 89 -10 63 -42 71 -46 71 -31 0 5 -25 24 -55 42 -30 18 -55 36 -55 40
0 11 30 39 41 39 5 0 34 -16 64 -37 31 -20 58 -34 61 -30 3 3 -22 24 -56 47
l-61 42 22 19 c28 24 29 24 129 -46 44 -31 80 -52 80 -47 0 6 -15 21 -32 33
-18 13 -57 40 -86 62 l-53 38 25 20 25 20 55 -40 c57 -42 66 -47 66 -33 0 5
-25 26 -55 47 -30 20 -55 39 -55 41 0 2 9 13 20 24 l20 20 55 -41 c30 -22 60
-39 66 -37 7 2 -12 22 -42 43 -30 21 -56 40 -58 42 -6 4 30 43 39 43 4 0 30
-18 58 -40 27 -22 53 -40 56 -40 17 0 1 20 -49 58 l-56 44 26 20 25 20 49 -41
c27 -23 55 -41 62 -41 14 1 13 2 -65 66 -37 31 -38 32 -20 52 11 11 21 21 23
21 1 1 39 -29 82 -65z m6945 45 c18 -20 18 -21 -11 -43 -69 -54 -80 -65 -73
-71 4 -4 29 11 56 34 57 47 62 48 86 22 17 -19 15 -21 -38 -61 -49 -37 -68
-60 -51 -60 3 0 31 20 63 45 l57 45 20 -21 20 -20 -25 -22 c-14 -12 -39 -32
-55 -44 -17 -12 -27 -24 -23 -28 3 -4 32 12 62 35 55 41 57 42 76 25 11 -10
20 -21 20 -25 0 -3 -25 -24 -55 -46 -48 -35 -66 -54 -50 -54 3 0 30 18 60 40
30 22 58 40 63 40 16 0 47 -41 36 -48 -5 -4 -44 -31 -87 -60 -42 -29 -77 -57
-77 -63 0 -12 0 -11 102 59 43 28 81 52 86 52 5 0 17 -9 26 -19 17 -19 15 -21
-44 -61 -34 -23 -59 -44 -56 -47 3 -3 23 5 43 19 98 64 87 61 112 34 l22 -23
-60 -39 c-53 -34 -74 -54 -55 -54 3 0 32 18 65 41 l61 41 24 -23 24 -23 -61
-38 c-34 -22 -59 -42 -55 -45 3 -3 33 11 67 32 l61 37 21 -21 c25 -25 27 -23
-60 -75 -26 -16 -43 -31 -37 -33 6 -2 39 13 73 33 60 35 62 36 81 19 11 -10
20 -22 20 -26 0 -4 -64 -44 -142 -89 -128 -73 -143 -79 -152 -63 -37 68 -241
359 -320 458 -53 66 -95 123 -93 128 3 10 139 126 148 127 3 0 14 -9 25 -21z
m-7461 -640 c77 -44 144 -84 148 -88 5 -5 -6 -32 -23 -62 -57 -95 -166 -320
-225 -464 -32 -77 -59 -141 -60 -143 -3 -4 -588 208 -598 217 -4 4 4 18 17 30
l25 24 71 -27 c39 -14 76 -26 83 -26 23 0 -9 18 -70 40 -35 13 -63 26 -63 30
0 3 11 16 23 29 19 17 29 20 48 12 13 -5 48 -18 77 -30 28 -11 52 -17 52 -12
0 5 -26 19 -57 31 -75 30 -80 35 -58 60 23 26 31 25 99 -5 86 -38 101 -28 17
11 l-75 35 25 25 25 25 69 -31 c37 -17 73 -29 79 -26 6 2 -22 18 -62 36 l-72
33 21 24 c13 12 26 23 31 23 5 0 54 -21 109 -46 55 -25 103 -43 106 -40 9 8 8
9 -97 56 -52 23 -97 44 -99 46 -7 7 32 44 46 44 7 0 41 -14 74 -31 34 -17 64
-28 67 -25 7 8 6 9 -67 46 l-64 32 26 25 25 26 67 -38 c37 -20 69 -34 72 -31
8 7 9 6 -59 45 -32 18 -58 36 -58 40 0 4 9 16 20 26 18 17 21 16 84 -19 67
-38 76 -41 76 -28 0 4 -27 22 -60 40 -33 19 -60 37 -60 41 0 4 9 16 20 26 18
17 21 16 84 -19 67 -38 76 -41 76 -28 0 4 -27 22 -60 40 -33 19 -60 36 -60 39
0 9 32 43 39 43 4 0 69 -36 146 -81z m-474 -665 c162 -59 297 -110 302 -114 4
-3 1 -22 -7 -41 -28 -68 -106 -357 -137 -511 -18 -87 -37 -158 -43 -158 -18 0
-1148 199 -1152 203 -2 2 11 17 29 35 l32 31 65 -14 c36 -8 76 -14 90 -15 42
0 8 16 -59 28 -35 6 -66 14 -69 17 -3 3 7 19 24 35 l29 29 65 -14 c36 -8 76
-14 90 -14 23 0 23 1 5 9 -11 5 -46 14 -77 20 -32 6 -58 15 -58 19 0 4 12 19
28 34 l27 26 75 -19 c84 -22 104 -24 95 -11 -3 6 -40 17 -81 27 l-76 16 30 31
31 31 80 -19 c45 -10 84 -16 87 -13 6 7 -94 38 -119 38 -28 0 -27 16 2 44 l28
27 114 -30 c119 -32 150 -37 134 -22 -6 5 -58 21 -117 36 -60 16 -108 31 -108
35 0 3 11 17 25 30 l25 23 79 -21 c88 -24 94 -26 87 -14 -3 5 -33 17 -68 27
-35 10 -66 21 -71 25 -4 3 4 17 18 30 l26 24 67 -18 c37 -10 75 -20 85 -23 9
-3 17 -1 17 4 0 6 -34 20 -77 32 l-76 22 29 30 30 29 74 -25 c78 -27 100 -31
85 -16 -6 5 -41 19 -78 31 l-69 22 27 28 27 28 71 -24 c77 -26 87 -28 87 -16
0 4 -32 18 -71 31 l-71 23 23 24 c12 13 28 24 35 24 6 0 144 -48 305 -106z"/>
<path d="M6664 6163 l38 -41 -7 -96 c-5 -67 -4 -96 4 -96 6 0 11 20 11 48 0
26 3 64 7 85 l6 38 39 -38 40 -38 -7 -97 c-5 -69 -4 -98 4 -98 7 0 11 24 12
63 1 34 4 72 7 85 7 22 8 22 44 -15 l38 -39 -10 -99 c-11 -117 -13 -191 -4
-182 4 4 12 68 19 143 l12 137 -106 105 c-58 58 -124 121 -146 141 l-40 35 39
-41z"/>
<path d="M6930 5905 c0 -5 14 -24 31 -41 l32 -33 -10 -88 c-6 -48 -8 -92 -4
-98 7 -14 19 31 21 85 1 25 5 53 8 63 7 15 12 13 41 -17 l34 -35 -10 -88 c-5
-48 -7 -92 -2 -97 4 -4 10 18 14 50 4 33 11 74 16 93 8 34 7 37 -81 125 -50
50 -90 87 -90 81z"/>
<path d="M7139 5686 c36 -37 36 -36 14 -178 -3 -24 -2 -38 5 -38 6 0 14 30 17
68 10 94 15 99 53 59 l33 -34 -14 -87 c-8 -47 -11 -89 -6 -92 4 -2 10 10 13
28 3 18 10 60 16 93 l10 59 -77 78 c-43 43 -82 78 -87 78 -6 0 5 -15 23 -34z"/>
<path d="M7460 5375 c0 -5 11 -20 24 -34 l25 -26 -18 -83 c-11 -45 -15 -84
-11 -87 5 -3 17 34 29 82 l20 88 -35 35 c-19 19 -34 30 -34 25z"/>
<path d="M5750 3917 c-32 -16 -37 -50 -12 -75 12 -12 16 -25 12 -33 -12 -22 7
-59 30 -59 38 0 60 19 60 50 0 17 -4 30 -9 30 -6 0 -7 16 -4 35 9 58 -23 79
-77 52z m58 -33 c4 -25 -20 -47 -42 -38 -19 7 -22 50 -3 57 23 10 42 2 45 -19z
m10 -87 c4 -20 -25 -34 -40 -19 -15 15 -1 44 19 40 10 -2 19 -11 21 -21z"/>
<path d="M6906 3915 c-9 -9 -21 -34 -28 -57 -14 -47 1 -85 40 -99 19 -7 29 -3
53 20 23 24 29 38 29 75 0 50 -19 76 -55 76 -13 0 -31 -7 -39 -15z m68 -21
c19 -50 -9 -118 -47 -112 -47 7 -26 128 22 128 10 0 22 -7 25 -16z"/>
<path d="M7041 3884 c-26 -33 -37 -89 -22 -120 13 -30 33 -38 66 -30 53 13 77
130 33 160 -32 23 -54 20 -77 -10z m63 -10 c30 -30 14 -107 -25 -119 -47 -15
-60 53 -23 113 17 26 27 28 48 6z"/>
<path d="M5604 3886 c-29 -22 -26 -107 6 -141 29 -31 53 -32 81 -4 18 18 20
30 17 70 -8 77 -54 111 -104 75z m64 -19 c29 -34 26 -109 -4 -121 -28 -11 -54
22 -54 69 0 56 31 85 58 52z"/>
<path d="M7174 3878 c-3 -4 0 -8 5 -8 14 0 13 -34 -3 -95 -16 -60 -13 -68 19
-53 27 12 33 28 12 28 -10 0 -11 12 -3 55 6 33 15 55 23 55 7 0 13 4 13 9 0
12 -59 20 -66 9z"/>
<path d="M5115 3698 c-4 -40 -12 -81 -17 -91 -5 -10 -7 -21 -4 -25 8 -7 107
26 121 41 10 10 -33 5 -67 -8 -16 -6 -17 0 -11 74 8 104 -12 111 -22 9z"/>
<path d="M7580 3748 c-11 -12 -26 -39 -32 -60 -9 -31 -8 -41 6 -63 22 -33 65
-33 95 -1 31 33 40 106 16 129 -23 24 -60 21 -85 -5z m70 -13 c26 -31 -11
-115 -51 -115 -40 0 -42 68 -3 111 21 23 37 24 54 4z"/>
<path d="M7725 3710 c5 -14 -2 -42 -20 -82 -15 -33 -24 -62 -21 -65 3 -4 18
-1 33 6 21 10 24 14 13 21 -12 8 -12 14 3 45 9 20 17 42 17 50 0 9 9 15 22 15
29 0 12 16 -26 26 -26 6 -28 5 -21 -16z"/>
<path d="M4945 3693 c-22 -21 -15 -85 13 -122 28 -37 82 -37 100 1 15 32 4 88
-24 119 -21 24 -67 25 -89 2z m79 -25 c22 -30 21 -97 0 -105 -26 -10 -48 10
-63 56 -10 33 -10 45 -1 56 18 22 47 18 64 -7z"/>
<path d="M7815 3690 c-3 -4 1 -10 7 -12 10 -4 5 -23 -15 -73 -15 -37 -26 -70
-23 -72 3 -3 17 -3 31 1 26 7 35 26 11 26 -11 0 -10 10 7 50 11 28 27 50 34
50 7 0 13 4 13 9 0 13 -58 32 -65 21z"/>
<path d="M6380 3575 c0 -70 4 -115 10 -115 6 0 10 45 10 115 0 70 -4 115 -10
115 -6 0 -10 -45 -10 -115z"/>
<path d="M6064 3653 c3 -16 8 -67 12 -115 3 -49 11 -88 16 -88 7 0 8 25 4 68
-12 129 -18 162 -28 162 -5 0 -7 -12 -4 -27z"/>
<path d="M6696 3603 c-4 -43 -9 -95 -12 -115 -3 -22 -2 -38 4 -38 6 0 13 28
16 63 4 34 9 86 13 115 3 32 1 52 -5 52 -5 0 -13 -35 -16 -77z"/>
<path d="M5750 3623 c-1 -32 36 -213 43 -213 6 0 7 16 3 38 -3 20 -12 70 -18
110 -6 39 -15 72 -20 72 -4 0 -8 -3 -8 -7z"/>
<path d="M7016 3613 c-23 -82 -39 -221 -22 -202 8 10 42 219 35 219 -4 0 -10
-8 -13 -17z"/>
<path d="M6197 3613 c-8 -14 5 -153 15 -153 6 0 7 30 3 78 -8 80 -10 89 -18
75z"/>
<path d="M6261 3543 c-1 -49 3 -83 9 -83 12 0 12 103 0 140 -5 17 -8 -1 -9
-57z"/>
<path d="M6320 3540 c0 -52 4 -79 10 -75 6 3 10 37 10 75 0 38 -4 72 -10 75
-6 4 -10 -23 -10 -75z"/>
<path d="M6446 3549 c-5 -47 -4 -75 3 -82 8 -8 11 13 11 71 0 45 -2 82 -4 82
-2 0 -7 -32 -10 -71z"/>
<path d="M6506 3543 c-5 -68 -3 -95 8 -82 8 9 15 159 7 159 -4 0 -11 -34 -15
-77z"/>
<path d="M6570 3580 c0 -25 -3 -62 -6 -82 -4 -23 -3 -38 3 -38 15 0 27 140 14
153 -8 8 -11 -2 -11 -33z"/>
<path d="M6136 3538 c7 -74 10 -86 19 -76 9 9 -7 148 -17 148 -5 0 -6 -30 -2
-72z"/>
<path d="M6628 3538 c-6 -84 3 -115 14 -48 10 65 9 120 -1 120 -5 0 -11 -33
-13 -72z"/>
<path d="M5948 3595 c-3 -6 -2 -35 3 -65 4 -30 8 -63 8 -72 1 -10 6 -18 11
-18 6 0 8 21 3 58 -8 72 -18 109 -25 97z"/>
<path d="M6011 3543 c4 -32 8 -66 8 -75 1 -10 6 -18 11 -18 10 0 8 23 -6 118
-9 57 -20 34 -13 -25z"/>
<path d="M6759 3583 c0 -10 -4 -44 -8 -75 -7 -60 4 -83 13 -25 14 94 16 117 6
117 -5 0 -10 -8 -11 -17z"/>
<path d="M6815 3543 c-3 -32 -8 -68 -11 -80 -2 -13 0 -23 5 -23 5 0 13 21 16
48 3 26 9 59 11 74 3 14 1 29 -5 32 -5 4 -12 -17 -16 -51z"/>
<path d="M5883 3558 c3 -18 9 -54 13 -80 3 -27 11 -48 16 -48 6 0 8 14 5 33
-3 17 -9 53 -13 80 -3 26 -11 47 -16 47 -6 0 -8 -14 -5 -32z"/>
<path d="M6885 3579 c-7 -21 -23 -143 -19 -148 8 -9 14 8 24 78 11 66 8 104
-5 70z"/>
<path d="M5820 3570 c0 -37 25 -150 33 -150 5 0 7 14 3 33 -3 17 -8 51 -12 75
-6 38 -24 70 -24 42z"/>
<path d="M6948 3575 c-3 -6 -9 -32 -12 -60 -4 -27 -10 -60 -13 -72 -3 -13 -1
-23 5 -23 6 0 15 31 22 70 11 66 10 105 -2 85z"/>
<path d="M5440 3556 c0 -33 52 -216 62 -216 5 0 7 8 4 18 -2 9 -15 55 -27 102
-24 93 -38 128 -39 96z"/>
<path d="M7314 3503 c-9 -32 -22 -79 -29 -105 -8 -27 -10 -50 -5 -53 5 -3 14
14 20 37 7 24 20 73 30 111 10 37 15 67 10 67 -5 0 -17 -26 -26 -57z"/>
<path d="M5700 3540 c0 -36 23 -140 31 -140 11 0 11 5 -2 76 -11 55 -29 96
-29 64z"/>
<path d="M7065 3528 c-21 -87 -25 -141 -10 -126 10 9 32 148 24 148 -5 0 -11
-10 -14 -22z"/>
<path d="M5640 3522 c0 -30 22 -125 32 -136 12 -14 10 21 -6 87 -15 62 -26 84
-26 49z"/>
<path d="M7125 3518 c-27 -122 -30 -142 -16 -134 4 3 14 33 20 67 7 33 15 67
18 75 3 8 0 14 -6 14 -6 0 -13 -10 -16 -22z"/>
<path d="M5578 3525 c-7 -7 22 -137 33 -149 13 -14 11 19 -6 87 -14 61 -18 70
-27 62z"/>
<path d="M7176 3461 c-18 -80 -20 -99 -7 -85 13 14 40 143 31 149 -5 3 -15
-26 -24 -64z"/>
<path d="M5517 3483 c25 -101 30 -117 40 -120 8 -3 9 5 3 29 -5 18 -14 52 -20
76 -6 23 -15 42 -21 42 -5 0 -6 -12 -2 -27z"/>
<path d="M7237 3450 c-10 -33 -17 -67 -17 -77 0 -30 17 0 29 52 7 28 14 58 17
68 3 9 1 17 -4 17 -5 0 -16 -27 -25 -60z"/>
<path d="M8198 3500 c-25 -15 -58 -74 -58 -103 0 -28 32 -57 63 -57 27 0 75
56 83 96 11 57 -38 92 -88 64z m61 -24 c16 -19 5 -59 -25 -91 -27 -29 -33 -30
-59 -12 -23 17 -15 53 19 90 28 30 48 34 65 13z"/>
<path d="M4457 3472 c-23 -26 -21 -46 7 -79 25 -28 25 -28 56 -11 l30 17 -6
-39 c-4 -25 -3 -40 4 -40 14 0 26 73 17 102 -18 60 -76 86 -108 50z m68 -22
c15 -16 16 -22 5 -35 -16 -20 -49 -16 -63 7 -8 12 -7 21 2 32 18 21 34 20 56
-4z"/>
<path d="M5394 3463 c3 -10 12 -44 21 -75 9 -32 21 -58 27 -58 5 0 8 6 5 13
-3 7 -13 41 -22 75 -10 34 -22 62 -27 62 -5 0 -7 -8 -4 -17z"/>
<path d="M7370 3472 c0 -4 -9 -37 -19 -75 -25 -87 -8 -88 19 -1 23 75 24 84
10 84 -5 0 -10 -3 -10 -8z"/>
<path d="M7636 3460 c-52 -134 -84 -247 -56 -199 20 34 72 189 67 201 -3 10
-6 9 -11 -2z"/>
<path d="M5130 3456 c0 -20 74 -205 80 -201 5 3 -5 42 -22 88 -17 45 -33 90
-35 100 -5 14 -23 25 -23 13z"/>
<path d="M5338 3455 c-5 -5 30 -134 38 -144 2 -2 7 -2 10 1 5 6 -33 148 -40
148 -1 0 -5 -2 -8 -5z"/>
<path d="M7412 3392 c-25 -76 -25 -82 -14 -82 7 0 24 47 48 133 3 9 1 17 -3
17 -5 0 -19 -31 -31 -68z"/>
<path d="M8330 3441 c0 -6 14 -17 30 -26 49 -25 33 -45 -36 -45 -60 0 -83 -70
-29 -90 26 -10 67 -2 59 11 -3 5 -16 9 -30 9 -28 0 -44 28 -23 41 8 5 29 9 47
9 30 0 72 28 72 48 0 7 -30 25 -82 50 -5 2 -8 -1 -8 -7z"/>
<path d="M5294 3370 c23 -70 36 -96 36 -69 0 25 -41 139 -50 139 -4 0 2 -31
14 -70z"/>
<path d="M7471 3369 c-12 -39 -20 -73 -17 -76 6 -6 6 -5 36 81 23 68 23 66 12
66 -4 0 -18 -32 -31 -71z"/>
<path d="M4342 3404 c-27 -19 -28 -53 -2 -103 29 -58 87 -71 116 -26 20 30 6
80 -33 119 -30 30 -49 32 -81 10z m84 -49 c8 -13 14 -36 12 -52 -6 -56 -73
-25 -93 43 -3 14 0 28 10 38 20 19 47 8 71 -29z"/>
<path d="M5237 3345 c13 -41 29 -73 34 -70 5 3 -3 35 -16 72 -14 36 -25 67
-25 69 0 2 -4 4 -9 4 -5 0 2 -34 16 -75z"/>
<path d="M7528 3350 c-14 -39 -22 -72 -18 -75 4 -3 18 23 30 58 13 34 25 68
27 75 3 6 1 12 -5 12 -5 0 -21 -32 -34 -70z"/>
<path d="M5093 3368 c2 -7 14 -41 27 -75 12 -35 27 -63 32 -63 6 0 7 8 4 18
-35 94 -52 132 -60 132 -4 0 -6 -6 -3 -12z"/>
<path d="M7648 3310 c-14 -39 -22 -72 -18 -75 4 -3 20 27 34 66 29 78 29 79
18 79 -4 0 -19 -32 -34 -70z"/>
<path d="M8453 3366 c3 -8 -12 -42 -34 -76 -21 -33 -39 -63 -39 -65 0 -9 45
-5 60 5 12 8 12 10 -2 15 -14 6 -13 12 10 50 15 25 35 45 45 45 25 0 21 15 -8
28 -34 15 -38 15 -32 -2z"/>
<path d="M5030 3357 c0 -2 12 -32 26 -68 26 -65 44 -94 44 -71 0 21 -52 142
-61 142 -5 0 -9 -1 -9 -3z"/>
<path d="M6369 3300 l-22 -61 -22 21 -23 21 -46 -80 c-25 -44 -46 -92 -46
-106 l0 -25 185 0 185 0 0 25 c0 14 -21 61 -47 106 l-46 80 -22 -21 c-26 -24
-26 -24 -49 48 -10 28 -19 52 -21 52 -2 0 -14 -27 -26 -60z"/>
<path d="M7705 3289 c-32 -83 -26 -106 9 -28 31 73 39 99 28 99 -5 0 -21 -32
-37 -71z"/>
<path d="M4830 3345 c0 -16 94 -205 102 -205 11 0 14 -8 -41 113 -25 53 -48
97 -53 97 -4 0 -8 -2 -8 -5z"/>
<path d="M7890 3254 c-55 -117 -54 -114 -43 -114 9 0 103 186 103 203 0 25
-21 -6 -60 -89z"/>
<path d="M5002 3260 c17 -38 35 -70 39 -70 12 0 12 0 -21 74 -17 36 -34 66
-40 66 -5 0 5 -31 22 -70z"/>
<path d="M7781 3308 c-5 -13 -19 -45 -30 -71 -12 -27 -16 -47 -10 -45 15 5 71
138 58 138 -5 0 -13 -10 -18 -22z"/>
<path d="M4920 3301 c0 -18 63 -145 67 -134 2 6 -9 41 -26 77 -27 60 -41 80
-41 57z"/>
<path d="M7821 3246 c-17 -39 -30 -75 -27 -80 5 -15 68 123 63 137 -2 7 -18
-19 -36 -57z"/>
<path d="M4800 3255 c0 -15 72 -146 77 -141 8 8 -58 146 -69 146 -4 0 -8 -2
-8 -5z"/>
<path d="M7930 3190 c-18 -38 -31 -72 -27 -76 3 -3 22 26 41 65 39 75 40 81
28 81 -5 0 -23 -31 -42 -70z"/>
<path d="M4750 3221 c0 -7 14 -39 32 -70 37 -67 37 -66 44 -59 6 7 -35 91 -60
123 -10 13 -15 15 -16 6z"/>
<path d="M7986 3163 c-20 -40 -32 -73 -26 -73 13 0 72 118 67 133 -2 7 -20
-21 -41 -60z"/>
<path d="M4544 3183 c14 -36 110 -186 113 -177 4 13 -99 194 -111 194 -4 0 -5
-7 -2 -17z"/>
<path d="M4692 3193 c26 -59 72 -135 75 -126 6 15 -55 133 -68 133 -6 0 -9 -3
-7 -7z"/>
<path d="M8040 3136 c-19 -36 -32 -68 -28 -71 6 -6 78 113 78 128 0 21 -19 -1
-50 -57z"/>
<path d="M8173 3107 c-53 -93 -61 -113 -44 -102 10 6 111 178 111 189 0 22
-22 -6 -67 -87z"/>
<path d="M4640 3165 c0 -10 47 -99 64 -120 27 -35 17 3 -15 60 -28 50 -49 76
-49 60z"/>
<path d="M8118 3149 c-19 -30 -58 -106 -58 -114 0 -16 21 10 50 61 31 55 38
98 8 53z"/>
<path d="M8739 3101 c-42 -42 -50 -78 -23 -105 33 -34 90 -16 123 38 26 42 26
61 1 86 -30 30 -58 24 -101 -19z m85 3 c20 -19 20 -20 -1 -54 -22 -38 -59 -58
-81 -43 -29 17 -25 42 11 78 39 39 49 42 71 19z"/>
<path d="M3902 3104 c-45 -31 -16 -124 38 -124 11 0 29 9 40 20 18 18 21 18
26 5 4 -9 -4 -23 -20 -36 -26 -20 -34 -39 -18 -39 5 0 25 15 45 33 l37 32 -35
40 -34 40 -7 -33 c-9 -42 -29 -51 -56 -24 -26 25 -18 72 12 72 25 0 34 16 14
24 -20 8 -16 9 -42 -10z"/>
<path d="M4520 3104 c0 -13 74 -134 82 -134 12 0 11 4 -28 69 -34 58 -54 81
-54 65z"/>
<path d="M8212 3046 c-45 -72 -47 -76 -33 -76 12 0 83 120 78 133 -1 5 -22
-20 -45 -57z"/>
<path d="M4470 3070 c0 -6 16 -37 36 -68 43 -68 43 -67 49 -60 6 5 -73 138
-81 138 -2 0 -4 -5 -4 -10z"/>
<path d="M8274 3033 c-15 -27 -34 -58 -42 -70 -8 -13 -10 -23 -4 -23 14 0 93
128 82 135 -4 3 -21 -16 -36 -42z"/>
<path d="M8877 3032 c-10 -10 -17 -26 -17 -35 0 -9 -7 -17 -15 -17 -8 0 -19
-9 -25 -21 -16 -28 11 -69 46 -69 14 0 22 4 19 10 -3 6 -12 10 -19 10 -22 0
-41 29 -28 42 9 9 18 9 37 0 28 -13 32 -4 14 30 -8 16 -8 24 3 35 19 18 47 7
54 -23 6 -25 24 -24 24 2 0 20 -37 54 -58 54 -11 0 -26 -8 -35 -18z"/>
<path d="M4426 3013 c56 -88 68 -103 76 -103 6 0 2 12 -8 28 -56 87 -68 102
-76 102 -6 0 -2 -12 8 -27z"/>
<path d="M8312 2978 c-42 -64 -48 -95 -9 -46 33 41 69 108 59 108 -5 0 -28
-28 -50 -62z"/>
<path d="M4270 3024 c0 -3 26 -42 58 -87 31 -44 60 -85 64 -91 4 -6 10 -8 13
-4 4 4 -22 47 -57 97 -56 80 -78 104 -78 85z"/>
<path d="M8435 2943 c-68 -98 -70 -103 -58 -103 9 0 133 172 133 184 0 19 -22
-5 -75 -81z"/>
<path d="M3787 3002 c-10 -10 -17 -28 -17 -39 0 -27 40 -84 72 -102 23 -13 28
-13 52 2 39 26 36 75 -8 121 -37 40 -73 47 -99 18z m84 -32 c38 -37 38 -83 1
-88 -44 -6 -98 72 -72 103 19 22 38 18 71 -15z"/>
<path d="M4360 3004 c0 -13 82 -124 92 -124 6 0 4 9 -5 23 -9 12 -29 41 -44
64 -25 38 -43 54 -43 37z"/>
<path d="M8398 2993 c-33 -40 -78 -112 -71 -116 9 -6 99 121 91 128 -3 3 -12
-3 -20 -12z"/>
<path d="M4780 2944 c0 -15 -8 -33 -17 -40 -17 -13 -17 -13 0 -14 14 0 17 -10
17 -60 0 -51 3 -60 18 -60 17 0 102 109 102 131 0 5 -20 9 -45 9 -43 0 -45 1
-45 30 0 20 -5 30 -15 30 -10 0 -15 -10 -15 -26z m59 -96 c-12 -18 -24 -35
-26 -37 -2 -2 -3 12 -3 32 0 33 3 37 26 37 l25 0 -22 -32z"/>
<path d="M7910 2941 c0 -21 -5 -31 -15 -31 -8 0 -15 -4 -15 -9 0 -5 7 -11 15
-15 11 -4 15 -21 15 -61 0 -76 22 -74 78 9 23 34 42 66 42 69 0 4 -20 7 -44 7
-41 0 -45 2 -48 27 -4 39 -28 42 -28 4z m70 -66 c0 -2 -9 -19 -20 -37 l-20
-33 0 38 c0 30 4 37 20 37 11 0 20 -2 20 -5z"/>
<path d="M9003 2958 c2 -7 -18 -37 -44 -67 -27 -30 -46 -58 -43 -63 7 -11 54
-10 54 2 0 6 -5 10 -11 10 -6 0 7 20 28 45 26 30 43 42 56 39 25 -8 21 11 -8
30 -29 19 -38 20 -32 4z"/>
<path d="M4260 2930 c0 -15 80 -120 92 -120 5 0 -10 27 -33 61 -45 63 -59 77
-59 59z"/>
<path d="M8491 2908 c-14 -18 -36 -48 -49 -65 -13 -18 -19 -33 -14 -33 15 0
95 107 90 120 -2 6 -14 -4 -27 -22z"/>
<path d="M4213 2885 c9 -23 80 -115 89 -115 14 0 9 11 -34 71 -41 55 -67 77
-55 44z"/>
<path d="M8515 2840 c-26 -34 -44 -64 -40 -68 6 -7 22 11 71 81 45 63 19 52
-31 -13z"/>
<path d="M4540 2860 c0 -6 32 -10 75 -10 43 0 75 4 75 10 0 6 -32 10 -75 10
-43 0 -75 -4 -75 -10z"/>
<path d="M4960 2860 c0 -7 235 -10 685 -10 450 0 685 3 685 10 0 7 -235 10
-685 10 -450 0 -685 -3 -685 -10z"/>
<path d="M6380 1731 c0 -749 3 -1142 10 -1146 7 -4 10 378 10 1139 0 757 -3
1146 -10 1146 -7 0 -10 -386 -10 -1139z"/>
<path d="M6455 2860 c4 -7 243 -10 686 -10 446 0 679 3 679 10 0 7 -235 10
-686 10 -454 0 -683 -3 -679 -10z"/>
<path d="M8090 2860 c0 -6 33 -10 80 -10 47 0 80 4 80 10 0 6 -33 10 -80 10
-47 0 -80 -4 -80 -10z"/>
<path d="M4160 2853 c0 -8 80 -112 93 -120 18 -11 0 24 -40 77 -34 45 -53 61
-53 43z"/>
<path d="M8573 2813 c-49 -59 -57 -73 -44 -73 13 0 96 109 89 116 -3 2 -23
-17 -45 -43z"/>
<path d="M4020 2834 c0 -14 141 -176 147 -170 3 3 -19 36 -50 74 -61 75 -97
110 -97 96z"/>
<path d="M8679 2755 c-39 -47 -69 -89 -65 -92 3 -4 10 -2 14 3 5 5 32 38 62
74 30 36 60 73 69 83 8 10 10 17 3 17 -6 0 -43 -38 -83 -85z"/>
<path d="M4110 2814 c0 -13 86 -113 98 -113 10 -1 8 6 -5 22 -65 82 -79 97
-85 97 -5 0 -8 -3 -8 -6z"/>
<path d="M8611 2764 c-24 -30 -40 -58 -37 -62 4 -3 10 -2 14 4 4 6 24 31 45
56 20 25 37 48 37 52 0 17 -19 1 -59 -50z"/>
<path d="M4540 2790 c0 -6 32 -10 75 -10 43 0 75 4 75 10 0 6 -32 10 -75 10
-43 0 -75 -4 -75 -10z"/>
<path d="M8090 2790 c0 -6 33 -10 80 -10 47 0 80 4 80 10 0 6 -33 10 -80 10
-47 0 -80 -4 -80 -10z"/>
<path d="M4060 2680 c29 -33 54 -60 56 -60 13 0 -2 24 -42 69 -65 72 -77 64
-14 -9z"/>
<path d="M8706 2688 c-50 -57 -62 -87 -20 -47 39 36 87 99 76 99 -6 0 -31 -24
-56 -52z"/>
<path d="M4540 2720 c0 -6 32 -10 75 -10 43 0 75 4 75 10 0 6 -32 10 -75 10
-43 0 -75 -4 -75 -10z"/>
<path d="M8090 2720 c0 -6 34 -10 81 -10 51 0 78 4 74 10 -3 6 -40 10 -81 10
-43 0 -74 -4 -74 -10z"/>
<path d="M3972 2691 c6 -17 100 -112 105 -107 7 6 -88 116 -100 116 -5 0 -7
-4 -5 -9z"/>
<path d="M8748 2646 c-27 -29 -48 -56 -48 -59 0 -18 20 -2 68 53 29 33 47 60
40 59 -7 -1 -34 -25 -60 -53z"/>
<path d="M9226 2636 c-40 -37 -47 -73 -18 -99 23 -21 45 -21 82 -2 37 19 60
52 60 85 0 60 -68 69 -124 16z m102 -14 c2 -15 -7 -32 -28 -52 -34 -32 -59
-37 -78 -18 -20 20 -13 45 21 72 40 32 81 31 85 -2z"/>
<path d="M3920 2652 c0 -4 25 -32 55 -62 32 -31 55 -48 55 -39 0 8 -22 36 -48
62 -46 46 -62 56 -62 39z"/>
<path d="M4535 2650 c-4 -6 23 -10 74 -10 47 0 81 4 81 10 0 6 -31 10 -74 10
-41 0 -78 -4 -81 -10z"/>
<path d="M8090 2650 c0 -6 34 -10 81 -10 51 0 78 4 74 10 -3 6 -40 10 -81 10
-43 0 -74 -4 -74 -10z"/>
<path d="M8796 2606 c-63 -73 -58 -82 9 -16 30 30 55 58 55 62 0 20 -22 4 -64
-46z"/>
<path d="M3455 2600 c-27 -28 -30 -29 -47 -13 -24 22 -36 8 -14 -16 10 -11 15
-25 11 -31 -5 -8 0 -10 11 -8 11 1 36 -10 56 -26 20 -15 41 -25 46 -22 9 5
-17 128 -29 141 -3 2 -18 -9 -34 -25z m38 -79 c-2 -3 -13 5 -25 17 -18 18 -19
23 -8 38 13 14 15 13 26 -17 6 -19 10 -36 7 -38z"/>
<path d="M8910 2545 c-47 -47 -80 -85 -75 -85 14 0 170 158 164 164 -3 3 -43
-33 -89 -79z"/>
<path d="M3857 2538 c45 -45 86 -79 90 -74 8 8 -145 155 -162 156 -5 0 27 -37
72 -82z"/>
<path d="M3880 2615 c1 -18 98 -120 106 -112 5 4 -18 33 -49 65 -31 31 -57 52
-57 47z"/>
<path d="M8840 2566 c-29 -31 -51 -59 -47 -63 10 -9 110 92 106 106 -2 6 -29
-13 -59 -43z"/>
<path d="M4535 2580 c-4 -6 23 -10 74 -10 47 0 81 4 81 10 0 6 -31 10 -74 10
-41 0 -78 -4 -81 -10z"/>
<path d="M8090 2580 c0 -6 34 -10 81 -10 51 0 78 4 74 10 -3 6 -40 10 -81 10
-43 0 -74 -4 -74 -10z"/>
<path d="M9380 2555 c-10 -12 -16 -13 -26 -4 -11 9 -14 7 -14 -9 0 -12 -16
-34 -37 -51 -24 -19 -34 -34 -28 -40 13 -12 145 -2 145 11 0 6 -9 21 -20 35
-18 23 -19 28 -5 43 8 9 15 20 15 23 0 12 -17 7 -30 -8z m-6 -61 c9 -23 8 -24
-26 -24 -30 0 -31 0 -13 20 22 24 31 25 39 4z"/>
<path d="M3310 2515 c-23 -27 -14 -65 21 -100 45 -43 82 -52 109 -25 30 30 25
58 -19 101 -42 42 -88 52 -111 24z m80 -22 c56 -33 59 -93 6 -93 -27 0 -76 49
-76 76 0 38 24 44 70 17z"/>
<path d="M3790 2523 c0 -14 99 -107 106 -100 4 4 -1 16 -12 28 -29 32 -94 82
-94 72z"/>
<path d="M8931 2480 c-30 -28 -51 -53 -47 -57 4 -4 32 19 64 50 70 70 57 75
-17 7z"/>
<path d="M4465 2510 c-4 -6 35 -10 109 -10 71 0 116 4 116 10 0 6 -43 10 -109
10 -63 0 -112 -4 -116 -10z"/>
<path d="M4965 2510 c-4 -7 225 -10 680 -10 455 0 684 3 680 10 -4 7 -242 10
-680 10 -438 0 -676 -3 -680 -10z"/>
<path d="M6455 2510 c-4 -7 225 -10 680 -10 455 0 684 3 680 10 -4 7 -242 10
-680 10 -438 0 -676 -3 -680 -10z"/>
<path d="M8095 2510 c-4 -6 35 -10 110 -10 75 0 114 4 110 10 -3 6 -52 10
-110 10 -58 0 -107 -4 -110 -10z"/>
<path d="M3746 2482 c-6 -11 105 -115 113 -106 3 3 -20 30 -51 60 -31 32 -58
52 -62 46z"/>
<path d="M8973 2437 c-32 -31 -55 -59 -51 -63 4 -3 33 18 65 49 32 31 55 59
51 63 -4 3 -33 -18 -65 -49z"/>
<path d="M9472 2458 c3 -7 -22 -34 -55 -60 l-59 -48 27 -10 c35 -13 37 -13 31
8 -5 14 5 26 36 49 24 16 49 28 56 26 18 -7 15 12 -6 30 -22 20 -35 22 -30 5z"/>
<path d="M3701 2433 c2 -15 109 -106 116 -99 4 4 -17 29 -47 56 -53 47 -71 59
-69 43z"/>
<path d="M4568 2433 c23 -2 61 -2 85 0 23 2 4 4 -43 4 -47 0 -66 -2 -42 -4z"/>
<path d="M8128 2433 c23 -2 61 -2 85 0 23 2 4 4 -43 4 -47 0 -66 -2 -42 -4z"/>
<path d="M9011 2389 c-29 -27 -51 -52 -48 -56 7 -6 117 88 117 100 0 15 -17 5
-69 -44z"/>
<path d="M3576 2382 c-3 -5 27 -35 66 -68 92 -76 108 -87 108 -76 0 14 -168
153 -174 144z"/>
<path d="M3714 2335 c33 -30 62 -52 65 -49 7 8 -99 104 -113 104 -6 -1 16 -25
48 -55z"/>
<path d="M9050 2341 c-30 -27 -52 -52 -49 -55 6 -7 117 84 118 97 2 15 -16 5
-69 -42z"/>
<path d="M9116 2318 c-47 -40 -86 -76 -86 -81 0 -12 15 -1 103 72 66 55 89 81
73 81 -2 0 -43 -32 -90 -72z"/>
<path d="M4568 2363 c23 -2 61 -2 85 0 23 2 4 4 -43 4 -47 0 -66 -2 -42 -4z"/>
<path d="M8128 2363 c23 -2 61 -2 85 0 23 2 4 4 -43 4 -47 0 -66 -2 -42 -4z"/>
<path d="M4107 2303 c-4 -6 13 -29 37 -52 24 -24 46 -39 49 -34 4 6 -13 29
-37 52 -24 24 -46 39 -49 34z"/>
<path d="M4568 2293 c23 -2 61 -2 85 0 23 2 4 4 -43 4 -47 0 -66 -2 -42 -4z"/>
<path d="M8093 2293 c7 -7 149 -4 156 3 2 2 -33 4 -79 4 -46 0 -80 -3 -77 -7z"/>
<path d="M8621 2266 c-18 -19 -32 -39 -30 -45 3 -7 24 9 49 34 27 27 38 45 29
45 -8 0 -30 -15 -48 -34z"/>
<path d="M3584 2281 c10 -16 116 -94 121 -89 7 7 -100 98 -115 98 -6 0 -9 -4
-6 -9z"/>
<path d="M9125 2244 c-31 -25 -54 -48 -51 -51 7 -7 40 15 91 60 58 53 27 45
-40 -9z"/>
<path d="M4780 2241 c-13 -26 -13 -64 1 -78 8 -8 7 -16 -2 -30 -26 -42 27 -87
76 -65 38 17 30 31 -15 25 -35 -5 -40 -3 -40 15 0 14 10 24 33 32 l32 12 -31
14 c-36 15 -50 40 -33 60 15 19 43 18 59 -1 9 -11 16 -13 23 -6 18 18 -13 41
-54 41 -28 0 -41 -5 -49 -19z"/>
<path d="M7913 2248 c-19 -25 -21 -46 -8 -72 8 -15 10 -28 4 -31 -15 -10 -10
-51 9 -68 21 -19 45 -21 73 -7 31 17 22 29 -22 27 -52 -2 -64 19 -20 36 38 14
39 24 6 37 -31 12 -41 35 -25 55 16 19 44 19 60 0 17 -20 32 -8 20 16 -12 22
-81 27 -97 7z"/>
<path d="M3550 2233 c1 -10 92 -81 116 -90 28 -10 10 10 -49 56 -54 41 -67 48
-67 34z"/>
<path d="M9170 2204 c-58 -46 -65 -52 -58 -60 5 -5 128 84 128 93 0 12 -31 -3
-70 -33z"/>
<path d="M4535 2220 c3 -5 40 -10 81 -10 43 0 74 4 74 10 0 6 -34 10 -81 10
-51 0 -78 -4 -74 -10z"/>
<path d="M8090 2220 c0 -6 31 -10 74 -10 41 0 78 5 81 10 4 6 -23 10 -74 10
-47 0 -81 -4 -81 -10z"/>
<path d="M3510 2187 c0 -7 116 -97 124 -97 17 0 1 20 -44 53 -51 38 -80 54
-80 44z"/>
<path d="M9198 2148 c-29 -22 -55 -43 -57 -45 -2 -1 -2 -6 2 -9 6 -7 95 55
117 81 24 29 -8 15 -62 -27z"/>
<path d="M3970 2150 c0 -6 55 -10 144 -10 86 0 147 4 151 10 4 6 -47 10 -144
10 -94 0 -151 -4 -151 -10z"/>
<path d="M4395 2150 c4 -6 65 -10 151 -10 89 0 144 4 144 10 0 6 -57 10 -151
10 -97 0 -148 -4 -144 -10z"/>
<path d="M4960 2150 c0 -7 235 -10 685 -10 450 0 685 3 685 10 0 7 -235 10
-685 10 -450 0 -685 -3 -685 -10z"/>
<path d="M6455 2150 c4 -7 243 -10 686 -10 446 0 679 3 679 10 0 7 -235 10
-686 10 -454 0 -683 -3 -679 -10z"/>
<path d="M8090 2150 c0 -6 57 -10 150 -10 93 0 150 4 150 10 0 6 -57 10 -150
10 -93 0 -150 -4 -150 -10z"/>
<path d="M8520 2150 c0 -6 55 -10 145 -10 90 0 145 4 145 10 0 6 -55 10 -145
10 -90 0 -145 -4 -145 -10z"/>
<path d="M3474 2132 c10 -17 126 -93 126 -83 0 5 -25 28 -57 50 -53 39 -81 52
-69 33z"/>
<path d="M9237 2099 c-31 -22 -57 -45 -57 -50 0 -6 6 -7 13 -3 22 14 117 86
117 90 0 11 -20 0 -73 -37z"/>
<path d="M3383 2122 c13 -19 168 -123 179 -120 7 3 -26 30 -73 62 -88 61 -117
77 -106 58z"/>
<path d="M9296 2068 c-49 -34 -84 -64 -78 -66 12 -4 181 108 182 121 0 14 -16
5 -104 -55z"/>
<path d="M9655 2118 c-61 -34 -82 -80 -49 -112 31 -31 120 -10 144 33 34 64
-29 116 -95 79z m79 -31 c9 -15 5 -23 -22 -48 -36 -32 -73 -37 -93 -13 -17 21
-3 44 42 67 40 20 58 19 73 -6z"/>
<path d="M2995 2066 c-13 -19 -14 -29 -5 -45 12 -23 48 -46 57 -37 4 3 12 -3
20 -14 16 -22 53 -26 71 -8 14 14 16 68 3 68 -5 0 -11 -12 -13 -27 -2 -20 -9
-28 -23 -28 -17 0 -19 6 -17 35 4 34 4 35 -16 17 -26 -24 -56 -18 -60 11 -3
17 2 25 17 29 27 7 27 23 1 23 -11 0 -27 -11 -35 -24z"/>
<path d="M4320 2082 c0 -14 149 -156 157 -149 4 4 -26 41 -67 82 -70 71 -90
85 -90 67z"/>
<path d="M4540 2080 c0 -6 32 -10 75 -10 43 0 75 4 75 10 0 6 -32 10 -75 10
-43 0 -75 -4 -75 -10z"/>
<path d="M8090 2080 c0 -6 31 -10 74 -10 41 0 78 5 81 10 4 6 -23 10 -74 10
-47 0 -81 -4 -81 -10z"/>
<path d="M8370 2015 c-41 -41 -71 -78 -67 -82 8 -7 157 135 157 149 0 18 -20
4 -90 -67z"/>
<path d="M3400 2033 c0 -11 120 -87 126 -80 5 5 -108 87 -120 87 -4 0 -6 -3
-6 -7z"/>
<path d="M9308 1999 c-57 -39 -84 -78 -30 -44 62 40 102 70 102 78 0 13 -14 6
-72 -34z"/>
<path d="M4540 2010 c0 -6 32 -10 75 -10 43 0 75 4 75 10 0 6 -32 10 -75 10
-43 0 -75 -4 -75 -10z"/>
<path d="M8090 2010 c0 -6 33 -10 80 -10 47 0 80 4 80 10 0 6 -33 10 -80 10
-47 0 -80 -4 -80 -10z"/>
<path d="M9722 1987 c-26 -27 -27 -45 -7 -74 11 -16 12 -22 2 -26 -6 -2 -23
12 -36 32 -14 19 -26 30 -29 23 -3 -9 14 -44 43 -90 3 -4 85 42 85 48 0 3 -14
13 -31 23 -35 19 -34 36 4 57 23 13 28 13 46 -5 14 -12 19 -25 15 -38 -4 -14
-2 -18 7 -15 22 7 21 42 -1 66 -27 29 -70 29 -98 -1z"/>
<path d="M3370 1982 c0 -13 109 -84 123 -79 6 2 -13 19 -43 38 -80 51 -80 51
-80 41z"/>
<path d="M9341 1948 c-35 -23 -59 -44 -54 -45 12 -4 133 69 133 80 0 14 -15 7
-79 -35z"/>
<path d="M2926 1948 c-9 -12 -16 -28 -16 -34 0 -25 53 -74 91 -85 34 -11 42
-10 59 6 11 10 20 31 20 47 0 67 -118 118 -154 66z m112 -30 c42 -40 19 -88
-34 -68 -16 6 -37 19 -46 27 -21 19 -24 59 -5 67 20 8 61 -4 85 -26z"/>
<path d="M4540 1940 c0 -6 32 -10 75 -10 43 0 75 4 75 10 0 6 -32 10 -75 10
-43 0 -75 -4 -75 -10z"/>
<path d="M8090 1940 c0 -6 34 -10 81 -10 51 0 78 4 74 10 -3 6 -40 10 -81 10
-43 0 -74 -4 -74 -10z"/>
<path d="M3330 1931 c0 -12 120 -83 133 -78 8 2 -116 87 -129 87 -2 0 -4 -4
-4 -9z"/>
<path d="M9376 1898 c-38 -23 -64 -44 -58 -46 14 -4 132 66 132 79 0 12 5 14
-74 -33z"/>
<path d="M9850 1885 c0 -8 -28 -29 -62 -46 -76 -38 -76 -38 -58 -49 22 -14 53
-12 47 3 -3 8 15 23 44 39 31 16 50 21 52 14 2 -6 8 -8 12 -3 9 8 -14 57 -27
57 -4 0 -8 -7 -8 -15z"/>
<path d="M3304 1871 c10 -16 125 -80 130 -72 3 4 -23 24 -58 44 -63 37 -82 44
-72 28z"/>
<path d="M4540 1870 c0 -6 32 -10 75 -10 43 0 75 4 75 10 0 6 -32 10 -75 10
-43 0 -75 -4 -75 -10z"/>
<path d="M8090 1870 c0 -6 34 -10 81 -10 51 0 78 4 74 10 -3 6 -40 10 -81 10
-43 0 -74 -4 -74 -10z"/>
<path d="M9403 1843 c-34 -20 -60 -40 -57 -44 5 -8 133 62 134 74 0 13 -14 7
-77 -30z"/>
<path d="M3212 1860 c3 -10 180 -120 194 -120 2 0 4 4 4 9 0 5 -26 24 -57 41
-32 18 -78 44 -102 58 -26 15 -42 20 -39 12z"/>
<path d="M9470 1813 c-41 -24 -82 -48 -90 -53 -8 -4 -12 -11 -9 -15 4 -3 46
17 95 46 102 58 98 56 87 61 -4 3 -42 -15 -83 -39z"/>
<path d="M3690 1800 c0 -6 104 -10 291 -10 191 0 288 3 284 10 -4 6 -112 10
-291 10 -183 0 -284 -4 -284 -10z"/>
<path d="M4465 1800 c-4 -6 35 -10 109 -10 71 0 116 4 116 10 0 6 -43 10 -109
10 -63 0 -112 -4 -116 -10z"/>
<path d="M4965 1800 c-4 -7 225 -10 680 -10 455 0 684 3 680 10 -4 7 -242 10
-680 10 -438 0 -676 -3 -680 -10z"/>
<path d="M6455 1800 c-4 -7 225 -10 679 -10 451 0 686 3 686 10 0 7 -233 10
-679 10 -443 0 -682 -3 -686 -10z"/>
<path d="M8090 1800 c0 -6 45 -10 116 -10 74 0 113 4 109 10 -4 6 -53 10 -116
10 -66 0 -109 -4 -109 -10z"/>
<path d="M8515 1800 c-4 -7 93 -10 284 -10 187 0 291 4 291 10 0 6 -101 10
-284 10 -179 0 -287 -4 -291 -10z"/>
<path d="M3255 1754 c34 -26 115 -65 115 -55 0 5 -26 23 -57 40 -60 33 -91 41
-58 15z"/>
<path d="M9480 1748 c-71 -42 -82 -50 -77 -54 6 -7 123 52 132 66 10 16 -17
10 -55 -12z"/>
<path d="M4535 1730 c-4 -6 23 -10 74 -10 47 0 81 4 81 10 0 6 -31 10 -74 10
-41 0 -78 -4 -81 -10z"/>
<path d="M8095 1730 c-4 -6 23 -10 75 -10 52 0 79 4 75 10 -3 6 -37 10 -75 10
-38 0 -72 -4 -75 -10z"/>
<path d="M3210 1713 c0 -9 121 -73 135 -73 15 1 -24 28 -77 56 -51 26 -58 28
-58 17z"/>
<path d="M9492 1683 c-35 -19 -60 -38 -57 -41 7 -8 135 60 135 71 0 12 -13 7
-78 -30z"/>
<path d="M11100 1653 c-62 -23 -96 -43 -74 -43 6 0 42 11 81 24 l71 24 23 -24
c12 -13 25 -22 27 -19 6 6 -48 66 -57 64 -3 -1 -35 -12 -71 -26z"/>
<path d="M3180 1660 c0 -5 32 -26 70 -45 39 -19 70 -31 70 -25 0 5 -31 26 -70
45 -38 19 -70 31 -70 25z"/>
<path d="M9528 1634 c-38 -19 -68 -39 -68 -44 0 -6 32 6 70 25 39 19 70 40 70
45 0 13 6 15 -72 -26z"/>
<path d="M4568 1653 c23 -2 61 -2 85 0 23 2 4 4 -43 4 -47 0 -66 -2 -42 -4z"/>
<path d="M8128 1653 c23 -2 61 -2 85 0 23 2 4 4 -43 4 -47 0 -66 -2 -42 -4z"/>
<path d="M3155 1600 c7 -11 125 -70 140 -70 3 0 5 4 5 8 0 7 -67 40 -143 71
-6 2 -6 -2 -2 -9z"/>
<path d="M9546 1574 c-37 -19 -65 -38 -62 -41 8 -8 146 58 146 69 0 13 -11 9
-84 -28z"/>
<path d="M11165 1582 c-76 -27 -81 -30 -74 -37 3 -2 39 6 81 19 l76 24 23 -24
c12 -13 25 -22 27 -19 6 6 -48 66 -57 64 -3 -1 -37 -13 -76 -27z"/>
<path d="M4568 1583 c23 -2 61 -2 85 0 23 2 4 4 -43 4 -47 0 -66 -2 -42 -4z"/>
<path d="M8128 1583 c23 -2 61 -2 85 0 23 2 4 4 -43 4 -47 0 -66 -2 -42 -4z"/>
<path d="M3060 1575 c0 -10 193 -96 204 -91 6 2 -33 25 -86 50 -93 44 -118 52
-118 41z"/>
<path d="M9600 1533 c-52 -25 -90 -47 -84 -49 12 -5 204 81 204 90 0 13 -29 3
-120 -41z"/>
<path d="M4772 1538 c3 -7 23 -14 46 -16 23 -2 42 -7 42 -11 0 -5 -20 -25 -45
-45 -35 -29 -45 -44 -45 -67 0 -43 38 -59 85 -36 36 17 47 37 21 37 -8 0 -18
-4 -21 -10 -8 -13 -52 -13 -60 0 -4 6 16 33 45 61 37 35 50 56 48 72 -3 19
-10 22 -62 25 -44 2 -57 0 -54 -10z"/>
<path d="M7897 1544 c-14 -14 6 -24 49 -24 24 0 44 -5 44 -10 0 -6 -18 -23
-39 -38 -67 -46 -75 -103 -16 -118 26 -6 75 17 75 36 0 13 -13 13 -27 -1 -13
-13 -55 -8 -60 8 -4 12 10 28 60 70 18 16 27 33 27 53 0 30 -1 30 -53 30 -30
0 -57 -3 -60 -6z"/>
<path d="M11236 1514 c-38 -13 -71 -26 -74 -29 -15 -15 12 -12 80 9 l76 24 27
-28 c15 -15 23 -30 18 -33 -4 -3 -36 -13 -70 -22 -35 -10 -63 -22 -63 -27 0
-6 6 -8 13 -6 6 3 42 13 80 23 67 18 67 18 90 -3 13 -12 27 -22 32 -22 5 0
-22 32 -60 70 -38 39 -72 69 -75 69 -3 -1 -36 -12 -74 -25z"/>
<path d="M9955 1515 c-65 -23 -83 -67 -45 -105 24 -24 60 -26 106 -4 61 29 71
89 19 112 -31 14 -30 15 -80 -3z m85 -30 c11 -13 9 -20 -9 -39 -49 -52 -137
-39 -115 18 13 33 102 48 124 21z"/>
<path d="M4535 1510 c3 -5 40 -10 81 -10 43 0 74 4 74 10 0 6 -34 10 -81 10
-51 0 -78 -4 -74 -10z"/>
<path d="M8095 1510 c3 -5 37 -10 75 -10 38 0 72 5 75 10 4 6 -23 10 -75 10
-52 0 -79 -4 -75 -10z"/>
<path d="M3100 1490 c0 -6 30 -23 66 -40 74 -33 74 -33 74 -21 0 4 -31 22 -70
39 -38 17 -70 27 -70 22z"/>
<path d="M9610 1469 c-70 -33 -76 -36 -68 -44 7 -8 138 54 138 65 0 6 -1 10
-2 9 -2 0 -32 -14 -68 -30z"/>
<path d="M2696 1443 c-9 -25 -14 -48 -12 -51 10 -9 25 10 31 39 9 39 27 32 43
-16 7 -21 18 -45 24 -52 16 -20 56 -16 68 8 13 24 5 69 -11 69 -7 0 -9 -9 -6
-23 4 -12 2 -28 -2 -36 -15 -23 -39 -4 -51 38 -9 35 -40 71 -61 71 -4 0 -14
-21 -23 -47z"/>
<path d="M3485 1440 c4 -6 145 -10 390 -10 245 0 386 4 390 10 4 7 -128 10
-390 10 -262 0 -394 -3 -390 -10z"/>
<path d="M4395 1440 c4 -6 65 -10 151 -10 89 0 144 4 144 10 0 6 -57 10 -151
10 -97 0 -148 -4 -144 -10z"/>
<path d="M4965 1440 c4 -7 242 -10 680 -10 438 0 676 3 680 10 4 7 -225 10
-680 10 -455 0 -684 -3 -680 -10z"/>
<path d="M6455 1440 c4 -7 243 -10 686 -10 446 0 679 3 679 10 0 7 -235 10
-686 10 -454 0 -683 -3 -679 -10z"/>
<path d="M8090 1440 c0 -6 55 -10 144 -10 86 0 147 4 151 10 4 6 -47 10 -144
10 -94 0 -151 -4 -151 -10z"/>
<path d="M8515 1440 c4 -6 147 -10 396 -10 253 0 389 4 389 10 0 6 -139 10
-396 10 -261 0 -393 -3 -389 -10z"/>
<path d="M3070 1435 c0 -10 131 -66 143 -62 7 2 -13 16 -45 30 -69 31 -98 40
-98 32z"/>
<path d="M9675 1429 c-11 -5 -42 -18 -69 -29 -27 -11 -46 -23 -42 -27 8 -8
146 47 146 59 0 10 -9 9 -35 -3z"/>
<path d="M10015 1370 c-15 -17 -16 -24 -7 -46 17 -35 16 -36 -24 -19 -43 18
-44 18 -44 5 0 -17 73 -42 104 -36 46 9 76 33 76 61 0 52 -69 75 -105 35z m83
-27 c4 -24 -30 -48 -54 -39 -14 6 -19 47 -7 60 16 15 58 1 61 -21z"/>
<path d="M11338 1356 c-100 -29 -140 -46 -107 -46 8 0 63 14 124 30 l109 30
28 -27 c33 -31 29 -35 -55 -54 -32 -7 -60 -16 -63 -21 -8 -12 13 -10 93 9 72
17 73 16 96 -5 13 -12 27 -22 32 -22 5 0 -22 32 -60 70 -38 39 -74 69 -80 69
-5 -1 -58 -15 -117 -33z"/>
<path d="M3050 1372 c0 -9 141 -64 148 -57 7 7 6 7 -68 38 -69 29 -80 31 -80
19z"/>
<path d="M4535 1370 c3 -5 40 -10 81 -10 43 0 74 4 74 10 0 6 -34 10 -81 10
-51 0 -78 -4 -74 -10z"/>
<path d="M5030 1371 c0 -5 52 -57 115 -116 63 -59 115 -103 115 -98 0 10 -212
223 -223 223 -4 0 -7 -4 -7 -9z"/>
<path d="M7625 1270 c-60 -60 -106 -113 -102 -117 8 -7 227 205 227 219 0 19
-22 1 -125 -102z"/>
<path d="M8090 1370 c0 -6 31 -10 74 -10 41 0 78 5 81 10 4 6 -23 10 -74 10
-47 0 -81 -4 -81 -10z"/>
<path d="M9653 1353 c-35 -14 -63 -30 -63 -35 0 -5 3 -8 8 -6 4 2 35 14 70 28
34 14 62 28 62 32 0 12 -9 9 -77 -19z"/>
<path d="M2657 1332 c-34 -38 -16 -82 43 -106 22 -9 49 -16 59 -16 27 0 53 34
49 66 -6 58 -114 97 -151 56z m111 -28 c26 -17 27 -51 1 -67 -12 -7 -27 -5
-54 9 -49 24 -64 47 -45 69 16 19 59 14 98 -11z"/>
<path d="M3034 1311 c8 -13 123 -54 138 -49 7 3 -19 17 -57 31 -75 29 -89 32
-81 18z"/>
<path d="M9690 1303 c-19 -8 -46 -19 -59 -24 -13 -5 -21 -12 -18 -15 8 -8 137
38 137 48 0 12 -20 8 -60 -9z"/>
<path d="M4540 1300 c0 -6 32 -10 75 -10 43 0 75 4 75 10 0 6 -32 10 -75 10
-43 0 -75 -4 -75 -10z"/>
<path d="M8090 1300 c0 -6 31 -10 74 -10 41 0 78 5 81 10 4 6 -23 10 -74 10
-47 0 -81 -4 -81 -10z"/>
<path d="M2940 1285 c0 -6 14 -12 132 -55 43 -16 80 -25 83 -21 2 5 -41 25
-98 45 -103 37 -117 40 -117 31z"/>
<path d="M9725 1255 c-49 -18 -91 -37 -93 -44 -4 -11 186 54 203 70 16 16 -16
8 -110 -26z"/>
<path d="M10120 1256 c0 -8 -23 -20 -57 -30 -82 -23 -90 -30 -62 -49 24 -17
41 -14 33 6 -6 16 84 41 109 31 20 -7 21 -3 5 31 -12 27 -28 34 -28 11z"/>
<path d="M4540 1230 c0 -6 32 -10 75 -10 43 0 75 4 75 10 0 6 -32 10 -75 10
-43 0 -75 -4 -75 -10z"/>
<path d="M8090 1230 c0 -6 33 -10 80 -10 47 0 80 4 80 10 0 6 -33 10 -80 10
-47 0 -80 -4 -80 -10z"/>
<path d="M11528 1217 c-43 -11 -78 -24 -78 -29 0 -6 10 -8 23 -5 143 37 144
37 168 11 12 -13 27 -24 33 -24 5 0 -5 16 -24 35 -19 19 -36 34 -39 34 -4 -1
-41 -11 -83 -22z"/>
<path d="M2980 1202 c0 -10 140 -56 147 -48 6 6 5 6 -81 36 -68 23 -66 23 -66
12z"/>
<path d="M9723 1187 c-63 -22 -88 -37 -62 -37 22 0 139 44 139 52 0 11 -6 10
-77 -15z"/>
<path d="M4540 1160 c0 -6 32 -10 75 -10 43 0 75 4 75 10 0 6 -32 10 -75 10
-43 0 -75 -4 -75 -10z"/>
<path d="M8090 1160 c0 -6 33 -10 80 -10 47 0 80 4 80 10 0 6 -33 10 -80 10
-47 0 -80 -4 -80 -10z"/>
<path d="M11607 1140 c-43 -10 -81 -21 -84 -24 -10 -10 38 -6 107 9 64 14 65
13 91 -11 39 -37 47 -28 9 11 -19 19 -36 34 -39 34 -4 -1 -41 -9 -84 -19z"/>
<path d="M2960 1145 c0 -8 33 -22 88 -38 73 -22 65 -3 -10 22 -63 21 -78 25
-78 16z"/>
<path d="M9738 1128 c-38 -12 -68 -25 -68 -30 0 -5 8 -7 18 -4 85 24 132 41
132 48 0 11 -4 10 -82 -14z"/>
<path d="M3335 1090 c-4 -7 153 -10 465 -10 312 0 469 3 465 10 -4 6 -170 10
-465 10 -295 0 -461 -4 -465 -10z"/>
<path d="M4465 1090 c-4 -6 35 -10 109 -10 71 0 116 4 116 10 0 6 -43 10 -109
10 -63 0 -112 -4 -116 -10z"/>
<path d="M4960 1090 c0 -7 235 -10 685 -10 450 0 685 3 685 10 0 7 -235 10
-685 10 -450 0 -685 -3 -685 -10z"/>
<path d="M6455 1090 c-4 -7 225 -10 679 -10 451 0 686 3 686 10 0 7 -233 10
-679 10 -443 0 -682 -3 -686 -10z"/>
<path d="M8090 1090 c0 -6 45 -10 115 -10 70 0 115 4 115 10 0 6 -45 10 -115
10 -70 0 -115 -4 -115 -10z"/>
<path d="M8520 1090 c0 -7 162 -10 465 -10 303 0 465 3 465 10 0 7 -162 10
-465 10 -303 0 -465 -3 -465 -10z"/>
<path d="M2950 1083 c0 -13 133 -54 142 -45 7 7 -33 23 -124 48 -10 3 -18 1
-18 -3z"/>
<path d="M9753 1069 c-35 -11 -63 -25 -63 -30 0 -6 7 -8 15 -5 9 3 40 13 70
21 30 9 57 21 60 26 9 13 -12 10 -82 -12z"/>
<path d="M2930 1021 c0 -10 125 -45 142 -38 7 2 -19 14 -58 26 -80 24 -84 24
-84 12z"/>
<path d="M4535 1020 c-4 -6 23 -10 74 -10 47 0 81 4 81 10 0 6 -31 10 -74 10
-41 0 -78 -4 -81 -10z"/>
<path d="M5390 1025 c0 -13 218 -231 224 -224 3 3 -46 56 -109 119 -63 63
-115 110 -115 105z"/>
<path d="M7270 915 c-63 -63 -108 -115 -100 -115 20 0 224 204 219 219 -2 6
-56 -41 -119 -104z"/>
<path d="M8090 1020 c0 -6 34 -10 81 -10 51 0 78 4 74 10 -3 6 -40 10 -81 10
-43 0 -74 -4 -74 -10z"/>
<path d="M9762 1009 c-34 -11 -60 -24 -58 -28 7 -10 146 29 146 41 0 11 -16 9
-88 -13z"/>
<path d="M2840 982 c0 -11 209 -66 217 -58 9 9 5 11 -103 39 -113 30 -114 30
-114 19z"/>
<path d="M9820 962 c-103 -28 -106 -29 -97 -38 8 -8 217 47 217 58 0 11 -13 9
-120 -20z"/>
<path d="M4535 950 c-4 -6 23 -10 74 -10 47 0 81 4 81 10 0 6 -31 10 -74 10
-41 0 -78 -4 -81 -10z"/>
<path d="M8090 950 c0 -6 34 -10 81 -10 51 0 78 4 74 10 -3 6 -40 10 -81 10
-43 0 -74 -4 -74 -10z"/>
<path d="M2890 901 c0 -10 149 -46 157 -37 7 7 -3 11 -83 31 -72 18 -74 18
-74 6z"/>
<path d="M9803 892 c-63 -17 -90 -32 -59 -32 31 0 146 32 146 41 0 12 -13 10
-87 -9z"/>
<path d="M4540 880 c-10 -7 11 -10 68 -10 53 0 81 4 77 10 -8 13 -125 13 -145
0z"/>
<path d="M8094 878 c-3 -4 32 -8 78 -8 58 0 79 3 68 10 -18 12 -138 11 -146
-2z"/>
<path d="M10145 873 c-26 -6 -65 -43 -65 -60 0 -8 12 -26 26 -40 22 -22 32
-25 70 -20 54 6 84 30 84 68 0 46 -48 68 -115 52z m92 -39 c10 -26 -10 -48
-51 -58 -57 -15 -97 22 -66 59 18 22 109 20 117 -1z"/>
<path d="M2880 843 c0 -6 24 -15 53 -22 28 -6 62 -14 75 -17 12 -4 22 -2 22 4
0 6 -24 15 -52 22 -29 6 -63 13 -75 16 -13 4 -23 2 -23 -3z"/>
<path d="M9813 833 c-35 -8 -63 -19 -63 -25 0 -6 10 -8 23 -4 12 3 46 11 75
17 28 7 52 16 52 21 0 10 -10 9 -87 -9z"/>
<path d="M4785 830 c-3 -5 1 -10 9 -10 13 0 16 -15 16 -90 0 -49 4 -90 8 -90
5 0 19 11 32 25 l23 25 -23 0 c-20 0 -22 3 -16 31 3 17 6 47 6 65 0 24 5 34
15 34 8 0 15 5 15 10 0 6 -18 10 -39 10 -22 0 -43 -4 -46 -10z"/>
<path d="M7910 831 c0 -5 7 -12 16 -15 13 -5 15 -18 9 -91 -6 -71 -5 -85 7
-85 15 0 48 30 48 43 0 4 -7 7 -15 7 -12 0 -15 13 -13 65 1 46 5 65 15 65 7 0
13 5 13 10 0 6 -18 10 -40 10 -22 0 -40 -4 -40 -9z"/>
<path d="M2506 794 c-9 -24 -7 -54 4 -54 6 0 10 5 10 11 0 12 8 11 108 -10 46
-9 54 0 27 35 -14 18 -14 18 -15 0 0 -12 -5 -16 -16 -12 -9 3 -33 9 -55 12
-23 4 -39 12 -39 20 0 19 -16 18 -24 -2z"/>
<path d="M4568 803 c23 -2 61 -2 85 0 23 2 4 4 -43 4 -47 0 -66 -2 -42 -4z"/>
<path d="M8128 803 c23 -2 61 -2 85 0 23 2 4 4 -43 4 -47 0 -66 -2 -42 -4z"/>
<path d="M2870 781 c0 -5 26 -15 58 -21 31 -6 65 -14 75 -16 9 -3 17 -1 17 5
0 5 -26 15 -57 21 -32 6 -66 14 -75 16 -10 3 -18 1 -18 -5z"/>
<path d="M9831 774 c-63 -14 -78 -20 -70 -28 7 -7 159 26 159 35 0 11 -10 10
-89 -7z"/>
<path d="M3235 730 c4 -6 187 -10 515 -10 328 0 511 4 515 10 4 7 -170 10
-515 10 -345 0 -519 -3 -515 -10z"/>
<path d="M4395 730 c4 -6 65 -10 151 -10 89 0 144 4 144 10 0 6 -57 10 -151
10 -97 0 -148 -4 -144 -10z"/>
<path d="M4965 730 c4 -7 242 -10 680 -10 438 0 676 3 680 10 4 7 -225 10
-680 10 -455 0 -684 -3 -680 -10z"/>
<path d="M6455 730 c4 -7 242 -10 680 -10 438 0 676 3 680 10 4 7 -225 10
-680 10 -455 0 -684 -3 -680 -10z"/>
<path d="M8095 730 c4 -6 63 -10 145 -10 82 0 141 4 145 10 4 6 -47 10 -145
10 -98 0 -149 -4 -145 -10z"/>
<path d="M8515 730 c4 -6 187 -10 515 -10 328 0 511 4 515 10 4 7 -170 10
-515 10 -345 0 -519 -3 -515 -10z"/>
<path d="M2855 720 c-3 -5 21 -14 52 -20 32 -6 68 -13 81 -16 12 -2 22 0 22 5
0 5 -26 15 -57 21 -32 6 -66 12 -75 14 -10 2 -20 0 -23 -4z"/>
<path d="M9846 713 c-69 -13 -84 -18 -74 -28 5 -5 148 22 156 29 11 11 -21 11
-82 -1z"/>
<path d="M10114 673 c9 -73 30 -99 24 -30 -3 39 -1 46 12 41 28 -10 134 -33
138 -29 10 10 -12 23 -50 29 -23 4 -62 16 -86 26 l-45 20 7 -57z"/>
<path d="M2497 693 c-43 -48 -7 -101 76 -110 72 -8 107 43 64 92 -31 37 -113
47 -140 18z m103 -16 c29 -15 34 -54 9 -70 -23 -14 -103 13 -107 36 -8 42 45
61 98 34z"/>
<path d="M2770 661 c0 -6 15 -13 33 -16 140 -25 188 -31 192 -24 5 8 -11 12
-115 29 -36 6 -75 13 -87 15 -13 3 -23 1 -23 -4z"/>
<path d="M4535 660 c3 -5 40 -10 81 -10 43 0 74 4 74 10 0 6 -34 10 -81 10
-51 0 -78 -4 -74 -10z"/>
<path d="M5885 520 c82 -82 151 -147 154 -144 7 6 -281 294 -294 294 -5 0 57
-67 140 -150z"/>
<path d="M6880 525 c-79 -79 -141 -148 -137 -152 8 -7 297 275 297 289 0 20
-25 -2 -160 -137z"/>
<path d="M8090 660 c0 -6 31 -10 74 -10 41 0 78 5 81 10 4 6 -23 10 -74 10
-47 0 -81 -4 -81 -10z"/>
<path d="M9920 654 c-41 -7 -90 -16 -108 -19 -18 -3 -30 -10 -28 -14 5 -7 53
-1 194 24 17 3 32 10 32 15 0 6 -3 10 -7 9 -5 -1 -42 -7 -83 -15z"/>
<path d="M10280 597 c0 -16 -8 -18 -104 -31 -49 -7 -53 -11 -31 -36 23 -25 38
-26 30 -1 -5 17 1 20 47 23 29 3 57 1 63 -4 18 -15 25 -8 19 20 -8 33 -24 53
-24 29z"/>
<path d="M4535 590 c3 -5 40 -10 81 -10 43 0 74 4 74 10 0 6 -34 10 -81 10
-51 0 -78 -4 -74 -10z"/>
<path d="M8090 590 c0 -6 31 -10 74 -10 41 0 78 5 81 10 4 6 -23 10 -74 10
-47 0 -81 -4 -81 -10z"/>
<path d="M2835 582 c13 -14 138 -32 148 -22 9 8 -16 13 -108 26 -34 4 -47 3
-40 -4z"/>
<path d="M9853 578 c-29 -5 -53 -14 -53 -20 0 -6 10 -8 23 -5 12 3 46 9 75 13
28 3 52 10 52 15 0 11 -27 10 -97 -3z"/>
<path d="M4540 520 c0 -6 32 -10 75 -10 43 0 75 4 75 10 0 6 -32 10 -75 10
-43 0 -75 -4 -75 -10z"/>
<path d="M8090 520 c0 -6 31 -10 74 -10 41 0 78 5 81 10 4 6 -23 10 -74 10
-47 0 -81 -4 -81 -10z"/>
<path d="M662 444 c-26 -18 -28 -50 -7 -81 10 -14 12 -24 5 -28 -16 -10 -11
-51 8 -68 23 -21 41 -21 71 -1 20 14 22 23 18 55 -3 22 -1 42 4 45 5 3 9 18 9
33 0 53 -60 79 -108 45z m82 -29 c13 -36 -31 -69 -59 -45 -16 13 -20 42 -8 53
12 13 61 7 67 -8z m-9 -110 c0 -14 -8 -21 -27 -23 -22 -3 -28 1 -28 16 0 25
10 33 35 30 12 -2 20 -10 20 -23z"/>
<path d="M1408 383 c-21 -43 -45 -88 -54 -100 l-16 -23 76 0 c44 0 76 4 76 10
0 6 -23 10 -51 10 -28 0 -49 3 -47 8 32 61 68 145 68 157 0 32 -17 12 -52 -62z"/>
<path d="M2795 435 c-29 -28 -32 -70 -9 -104 13 -18 24 -22 50 -19 27 3 34 0
34 -13 0 -14 -10 -19 -42 -21 -23 -2 -43 -9 -46 -15 -3 -10 13 -13 57 -13 l61
0 0 60 c0 33 -3 60 -7 60 -4 0 -17 -10 -30 -22 -19 -17 -28 -20 -41 -12 -21
13 -28 60 -11 80 13 16 65 19 74 4 4 -6 11 -8 16 -4 18 11 -23 44 -53 44 -17
0 -39 -10 -53 -25z"/>
<path d="M4226 439 c-30 -23 -33 -45 -11 -76 10 -14 12 -24 5 -28 -19 -12 -11
-54 15 -71 21 -14 30 -14 55 -4 42 18 37 29 -12 27 -55 -3 -66 25 -17 42 34
12 33 17 -3 35 -32 16 -32 60 1 64 13 2 28 -1 34 -7 15 -15 27 -14 27 4 0 14
-37 35 -59 35 -5 0 -20 -9 -35 -21z"/>
<path d="M4540 450 c0 -6 32 -10 75 -10 43 0 75 4 75 10 0 6 -32 10 -75 10
-43 0 -75 -4 -75 -10z"/>
<path d="M6367 453 c-25 -7 -47 -55 -47 -106 0 -56 29 -97 70 -97 44 0 70 40
70 107 0 44 -5 58 -25 78 -24 25 -33 27 -68 18z m57 -45 c19 -27 20 -67 4
-103 -9 -21 -18 -25 -42 -23 -30 3 -31 4 -34 61 -3 62 8 87 39 87 10 0 25 -10
33 -22z"/>
<path d="M8090 450 c0 -6 33 -10 80 -10 47 0 80 4 80 10 0 6 -33 10 -80 10
-47 0 -80 -4 -80 -10z"/>
<path d="M8492 444 c-24 -16 -31 -71 -11 -91 8 -8 8 -13 0 -17 -20 -13 -12
-55 14 -72 27 -17 75 -9 83 15 3 9 -5 11 -33 5 -27 -5 -40 -3 -46 7 -10 17 8
39 32 39 11 0 19 7 19 15 0 8 -8 15 -19 15 -24 0 -45 25 -37 45 9 23 34 29 62
15 33 -18 44 -3 15 21 -28 23 -49 24 -79 3z"/>
<path d="M9906 439 c-20 -16 -26 -29 -26 -59 0 -50 23 -73 67 -68 26 3 33 0
33 -13 0 -14 -10 -19 -47 -21 -67 -4 -55 -23 13 -23 l56 0 4 45 c6 66 0 76
-32 51 -35 -27 -52 -26 -66 4 -9 19 -8 29 6 50 17 25 59 35 71 15 9 -15 25
-12 25 5 0 17 -30 35 -58 35 -11 0 -31 -9 -46 -21z"/>
<path d="M11383 443 c-17 -52 -46 -111 -68 -139 -14 -18 -25 -35 -25 -38 0 -3
34 -6 75 -6 43 0 75 4 75 10 0 6 -23 10 -51 10 -28 0 -49 3 -47 8 32 64 68
147 68 158 0 20 -19 17 -27 -3z"/>
<path d="M12032 444 c-26 -18 -30 -65 -7 -84 11 -9 13 -16 5 -24 -16 -16 -12
-51 8 -69 23 -21 41 -21 71 -1 20 14 22 23 18 55 -3 22 -1 42 4 45 5 3 9 18 9
33 0 53 -60 79 -108 45z m82 -31 c9 -22 -27 -58 -48 -50 -20 8 -30 32 -22 52
8 21 62 20 70 -2z m-9 -108 c0 -14 -8 -21 -27 -23 -22 -3 -28 1 -28 16 0 25
10 33 35 30 12 -2 20 -10 20 -23z"/>
<path d="M3500 421 c0 -16 -6 -32 -12 -34 -10 -4 -10 -7 -1 -14 6 -5 13 -33
15 -62 2 -31 8 -56 15 -58 12 -4 103 110 103 128 0 5 -20 9 -45 9 -43 0 -45 1
-45 30 0 20 -5 30 -15 30 -10 0 -15 -10 -15 -29z m80 -58 c-1 -5 -12 -21 -25
-38 l-25 -30 0 38 c0 33 3 37 25 37 14 0 25 -3 25 -7z"/>
<path d="M4913 438 c2 -8 21 -13 45 -13 25 0 42 -5 42 -11 0 -7 -20 -28 -45
-48 -53 -44 -59 -76 -19 -102 23 -16 28 -16 60 -1 35 17 46 37 20 37 -8 0 -18
-4 -21 -10 -3 -5 -17 -10 -31 -10 -38 0 -30 31 21 77 32 28 45 48 45 67 0 25
-2 26 -61 26 -44 0 -60 -3 -56 -12z"/>
<path d="M5640 441 c0 -5 7 -11 15 -15 13 -4 14 -20 9 -91 -7 -89 -4 -96 34
-69 25 17 29 34 7 34 -12 0 -15 14 -15 65 0 51 3 65 15 65 8 0 15 5 15 10 0 6
-18 10 -40 10 -22 0 -40 -4 -40 -9z"/>
<path d="M7060 441 c0 -5 7 -12 16 -15 13 -5 15 -18 9 -91 -6 -71 -5 -85 7
-85 15 0 48 30 48 43 0 4 -7 7 -15 7 -12 0 -15 14 -15 65 0 51 3 65 15 65 8 0
15 5 15 10 0 6 -18 10 -40 10 -22 0 -40 -4 -40 -9z"/>
<path d="M7753 438 c2 -8 22 -13 48 -14 24 0 43 -4 42 -7 -2 -4 -3 -11 -3 -16
0 -4 -18 -20 -40 -35 -50 -33 -62 -72 -30 -98 29 -23 52 -23 81 1 29 24 18 39
-15 21 -28 -14 -56 -8 -56 13 0 8 20 31 45 51 35 29 45 44 45 67 0 29 0 29
-61 29 -44 0 -60 -3 -56 -12z"/>
<path d="M9190 425 c0 -14 -7 -28 -15 -31 -8 -4 -15 -10 -15 -15 0 -5 7 -9 15
-9 12 0 15 -13 15 -60 0 -80 16 -78 74 5 25 36 46 68 46 70 0 2 -21 5 -47 7
-44 3 -48 5 -51 31 -4 34 -22 36 -22 2z m70 -61 c0 -12 -34 -64 -42 -64 -10 0
-11 54 -1 63 8 9 43 9 43 1z"/>
<path d="M2084 395 c-26 -39 -9 -79 34 -83 38 -4 39 -8 10 -39 -29 -31 -14
-42 17 -13 59 55 51 152 -12 158 -25 3 -35 -2 -49 -23z m71 -30 c0 -25 -4 -30
-25 -30 -16 0 -26 6 -28 18 -6 30 6 49 30 45 18 -2 23 -9 23 -33z"/>
<path d="M10617 402 c-20 -22 -22 -65 -4 -80 6 -6 25 -12 41 -14 l28 -3 -22
-28 c-24 -30 -20 -48 5 -27 40 33 57 109 35 151 -14 25 -61 25 -83 1z m69 -26
c8 -32 -2 -46 -31 -46 -28 0 -43 34 -25 55 19 23 49 18 56 -9z"/>
<path d="M4470 380 c0 -6 43 -10 110 -10 67 0 110 4 110 10 0 6 -43 10 -110
10 -67 0 -110 -4 -110 -10z"/>
<path d="M8090 380 c0 -6 45 -10 115 -10 70 0 115 4 115 10 0 6 -45 10 -115
10 -70 0 -115 -4 -115 -10z"/>
<path d="M4535 310 c-4 -6 23 -10 74 -10 47 0 81 4 81 10 0 6 -31 10 -74 10
-41 0 -78 -4 -81 -10z"/>
<path d="M8090 310 c0 -6 34 -10 81 -10 51 0 78 4 74 10 -3 6 -40 10 -81 10
-43 0 -74 -4 -74 -10z"/>
<path d="M700 121 l0 -91 -333 0 c-252 0 -336 3 -347 12 -12 11 -12 10 -1 -5
13 -16 328 -17 6377 -17 3499 0 6365 3 6367 8 3 4 -149 7 -336 7 l-342 0 -1
83 c-1 46 -4 86 -8 89 -3 4 -6 -35 -6 -86 l0 -92 -27 3 c-26 3 -28 7 -34 58
l-5 55 -5 -55 c-4 -51 -6 -55 -31 -58 -28 -3 -28 -3 -28 53 0 35 -4 54 -10 50
-6 -3 -10 -28 -10 -56 0 -46 -2 -49 -25 -49 -24 0 -25 3 -25 55 0 30 -4 55
-10 55 -5 0 -10 -25 -10 -55 0 -52 -1 -55 -25 -55 -24 0 -25 3 -25 55 0 30 -4
55 -10 55 -5 0 -10 -25 -10 -55 0 -52 -1 -55 -25 -55 -25 0 -25 1 -25 90 0 53
-4 90 -10 90 -6 0 -10 -37 -10 -90 0 -89 0 -90 -25 -90 -24 0 -25 3 -25 55 0
30 -4 55 -10 55 -5 0 -10 -25 -10 -55 0 -52 -1 -55 -25 -55 -24 0 -25 3 -25
55 0 30 -4 55 -10 55 -5 0 -10 -25 -10 -55 0 -52 -1 -55 -25 -55 -24 0 -25 3
-25 55 0 30 -4 55 -10 55 -5 0 -10 -25 -10 -55 0 -52 -1 -55 -25 -55 -23 0
-25 3 -25 49 0 28 -4 53 -10 56 -6 4 -10 -15 -10 -50 0 -56 0 -56 -27 -53 -28
3 -28 4 -34 93 l-5 90 -2 -92 -2 -93 -30 0 c-30 0 -30 1 -32 58 l-1 57 -6 -55
c-6 -51 -8 -55 -33 -58 -28 -3 -28 -3 -28 53 0 35 -4 54 -10 50 -5 -3 -10 -28
-10 -56 0 -46 -2 -49 -25 -49 -24 0 -25 3 -25 55 0 30 -4 55 -10 55 -5 0 -10
-25 -10 -55 0 -52 -1 -55 -25 -55 -24 0 -25 3 -25 55 0 30 -4 55 -10 55 -5 0
-10 -25 -10 -55 0 -52 -1 -55 -25 -55 -25 0 -25 1 -25 90 0 53 -4 90 -10 90
-6 0 -10 -37 -10 -90 0 -89 0 -90 -25 -90 -24 0 -25 3 -25 55 0 30 -4 55 -10
55 -5 0 -10 -25 -10 -55 0 -52 -1 -55 -25 -55 -24 0 -25 3 -25 55 0 30 -4 55
-10 55 -5 0 -10 -25 -10 -55 0 -52 -1 -55 -25 -55 -23 0 -25 3 -25 49 0 28 -4
53 -10 56 -6 4 -10 -15 -10 -50 0 -56 0 -56 -27 -53 -26 3 -28 7 -34 58 l-6
55 -1 -57 c-2 -57 -2 -58 -32 -58 l-30 0 -2 93 -2 92 -5 -90 c-6 -89 -6 -90
-33 -93 -28 -3 -28 -3 -28 54 0 68 -13 65 -14 -3 -1 -45 -3 -48 -28 -51 -28
-3 -28 -2 -28 52 0 31 -4 56 -10 56 -5 0 -10 -25 -10 -55 0 -52 -1 -55 -25
-55 -24 0 -25 3 -25 55 0 30 -4 55 -10 55 -5 0 -10 -25 -10 -55 0 -52 -1 -55
-25 -55 -24 0 -25 3 -25 55 0 30 -4 55 -10 55 -5 0 -10 -25 -10 -55 0 -52 -1
-55 -25 -55 -25 0 -25 1 -25 90 0 53 -4 90 -10 90 -6 0 -10 -37 -10 -90 0 -89
0 -90 -25 -90 -24 0 -25 3 -25 55 0 30 -4 55 -10 55 -5 0 -10 -25 -10 -55 0
-52 -1 -55 -25 -55 -24 0 -25 3 -25 55 0 30 -4 55 -10 55 -5 0 -10 -25 -10
-55 0 -52 -1 -55 -25 -55 -23 0 -25 3 -25 49 0 28 -4 53 -10 56 -6 4 -10 -15
-10 -50 0 -56 0 -56 -27 -53 -26 3 -28 7 -34 58 l-5 55 -5 -55 c-4 -51 -6 -55
-31 -58 l-28 -3 0 92 c0 51 -3 90 -6 86 -4 -3 -7 -43 -8 -89 -1 -83 -1 -83
-28 -86 -28 -3 -28 -2 -28 52 0 31 -4 56 -10 56 -5 0 -10 -25 -10 -55 0 -52
-1 -55 -25 -55 -24 0 -25 3 -25 55 0 30 -4 55 -10 55 -5 0 -10 -25 -10 -55 0
-52 -1 -55 -25 -55 -24 0 -25 3 -25 55 0 30 -4 55 -10 55 -5 0 -10 -25 -10
-55 0 -52 -1 -55 -25 -55 -24 0 -25 3 -25 55 0 30 -4 55 -10 55 -5 0 -10 -25
-10 -55 0 -52 -1 -55 -25 -55 -25 0 -25 1 -25 90 0 53 -4 90 -10 90 -6 0 -10
-37 -10 -90 0 -89 0 -90 -25 -90 -24 0 -25 3 -25 55 0 30 -4 55 -10 55 -5 0
-10 -25 -10 -55 0 -52 -1 -55 -25 -55 -23 0 -25 3 -25 49 0 28 -4 53 -10 56
-6 4 -10 -15 -10 -50 0 -56 0 -56 -27 -53 -26 3 -28 6 -29 51 -2 68 -14 71
-14 3 0 -57 0 -57 -27 -54 -26 3 -28 7 -34 58 l-5 55 -5 -55 c-4 -51 -6 -55
-31 -58 l-28 -3 0 91 c0 58 -4 89 -10 85 -5 -3 -10 -44 -10 -91 0 -83 0 -84
-25 -84 -24 0 -25 3 -25 55 0 30 -4 55 -10 55 -5 0 -10 -25 -10 -55 0 -52 -1
-55 -25 -55 -24 0 -25 3 -25 55 0 30 -4 55 -10 55 -5 0 -10 -25 -10 -55 0 -52
-1 -55 -25 -55 -24 0 -25 3 -25 55 0 30 -4 55 -10 55 -5 0 -10 -25 -10 -55 0
-52 -1 -55 -25 -55 -24 0 -25 3 -25 55 0 30 -4 55 -10 55 -5 0 -10 -25 -10
-55 0 -52 -1 -55 -25 -55 -25 0 -25 1 -25 90 0 53 -4 90 -10 90 -6 0 -10 -37
-10 -90 0 -89 0 -90 -25 -90 -24 0 -25 3 -25 55 0 30 -4 55 -10 55 -5 0 -10
-25 -10 -56 0 -54 0 -55 -27 -52 -26 3 -28 6 -29 51 -2 68 -14 71 -14 3 0 -57
0 -57 -27 -54 -26 3 -28 7 -34 58 l-5 55 -5 -55 c-4 -51 -6 -55 -31 -58 -28
-3 -28 -2 -30 55 l-1 58 -6 -55 c-6 -51 -8 -55 -34 -58 l-27 -3 0 91 c0 58 -4
89 -10 85 -5 -3 -10 -44 -10 -91 0 -83 0 -84 -25 -84 -24 0 -25 3 -25 55 0 30
-4 55 -10 55 -5 0 -10 -25 -10 -55 0 -52 -1 -55 -25 -55 -24 0 -25 3 -25 55 0
30 -4 55 -10 55 -5 0 -10 -25 -10 -55 0 -52 -1 -55 -25 -55 -24 0 -25 3 -25
55 0 30 -4 55 -10 55 -5 0 -10 -25 -10 -55 0 -52 -1 -55 -25 -55 -24 0 -25 3
-25 55 0 30 -4 55 -10 55 -5 0 -10 -25 -10 -55 0 -52 -1 -55 -25 -55 -25 0
-25 1 -25 90 0 53 -4 90 -10 90 -6 0 -10 -37 -10 -90 0 -89 0 -90 -25 -90 -23
0 -25 3 -25 49 0 28 -5 53 -10 56 -6 4 -10 -15 -10 -50 0 -56 0 -56 -27 -53
-26 3 -28 7 -34 58 l-6 55 -1 -57 c-2 -57 -2 -58 -32 -58 -30 0 -30 1 -32 58
l-1 57 -6 -55 c-6 -51 -8 -55 -33 -58 -28 -3 -28 -3 -28 53 0 35 -4 54 -10 50
-5 -3 -10 -28 -10 -56 0 -46 -2 -49 -25 -49 -25 0 -25 1 -25 90 0 53 -4 90
-10 90 -6 0 -10 -37 -10 -90 0 -89 0 -90 -25 -90 -24 0 -25 3 -25 55 0 30 -4
55 -10 55 -5 0 -10 -25 -10 -55 0 -52 -1 -55 -25 -55 -24 0 -25 3 -25 55 0 30
-4 55 -10 55 -5 0 -10 -25 -10 -55 0 -52 -1 -55 -25 -55 -24 0 -25 3 -25 55 0
30 -4 55 -10 55 -5 0 -10 -25 -10 -55 0 -52 -1 -55 -25 -55 -24 0 -25 3 -25
55 0 30 -4 55 -10 55 -5 0 -10 -25 -10 -55 0 -52 -1 -55 -25 -55 -25 0 -25 1
-25 84 0 47 -4 88 -10 91 -6 4 -10 -27 -10 -85 l0 -91 -27 3 c-26 3 -28 7 -34
58 l-6 55 -1 -58 c-2 -57 -2 -58 -29 -55 -26 3 -28 7 -34 58 l-5 55 -5 -55
c-4 -51 -6 -55 -31 -58 -28 -3 -28 -3 -28 54 0 68 -12 65 -14 -3 -1 -45 -3
-48 -28 -51 -28 -3 -28 -2 -28 52 0 31 -4 56 -10 56 -5 0 -10 -25 -10 -55 0
-52 -1 -55 -25 -55 -25 0 -25 1 -25 90 0 53 -4 90 -10 90 -6 0 -10 -37 -10
-90 0 -89 0 -90 -25 -90 -24 0 -25 3 -25 55 0 30 -4 55 -10 55 -5 0 -10 -25
-10 -55 0 -52 -1 -55 -25 -55 -24 0 -25 3 -25 55 0 30 -4 55 -10 55 -5 0 -10
-25 -10 -55 0 -52 -1 -55 -25 -55 -24 0 -25 3 -25 55 0 30 -4 55 -10 55 -5 0
-10 -25 -10 -55 0 -52 -1 -55 -25 -55 -24 0 -25 3 -25 55 0 30 -4 55 -10 55
-5 0 -10 -25 -10 -55 0 -52 -1 -55 -25 -55 -25 0 -25 1 -25 84 0 47 -4 88 -10
91 -6 4 -10 -27 -10 -85 l0 -91 -27 3 c-26 3 -28 7 -34 58 l-5 55 -5 -55 c-4
-51 -6 -55 -31 -58 -28 -3 -28 -3 -28 54 0 68 -12 65 -14 -3 -1 -45 -3 -48
-28 -51 -28 -3 -28 -3 -28 53 0 35 -4 54 -10 50 -6 -3 -10 -28 -10 -56 0 -46
-2 -49 -25 -49 -24 0 -25 3 -25 55 0 30 -4 55 -10 55 -5 0 -10 -25 -10 -55 0
-52 -1 -55 -25 -55 -25 0 -25 1 -25 90 0 53 -4 90 -10 90 -6 0 -10 -37 -10
-90 0 -89 0 -90 -25 -90 -24 0 -25 3 -25 55 0 30 -4 55 -10 55 -5 0 -10 -25
-10 -55 0 -52 -1 -55 -25 -55 -24 0 -25 3 -25 55 0 30 -4 55 -10 55 -5 0 -10
-25 -10 -55 0 -52 -1 -55 -25 -55 -24 0 -25 3 -25 55 0 30 -4 55 -10 55 -5 0
-10 -25 -10 -55 0 -52 -1 -55 -25 -55 -24 0 -25 3 -25 55 0 30 -4 55 -10 55
-5 0 -10 -25 -10 -56 0 -54 0 -55 -27 -52 -28 3 -28 3 -30 86 -2 115 -13 117
-13 3 l0 -92 -27 3 c-26 3 -28 7 -34 58 l-5 55 -5 -55 c-4 -51 -6 -55 -31 -58
-28 -3 -28 -3 -28 53 0 35 -4 54 -10 50 -5 -3 -10 -28 -10 -56 0 -46 -2 -49
-25 -49 -24 0 -25 3 -25 55 0 30 -4 55 -10 55 -5 0 -10 -25 -10 -55 0 -52 -1
-55 -25 -55 -24 0 -25 3 -25 55 0 30 -4 55 -10 55 -5 0 -10 -25 -10 -55 0 -52
-1 -55 -25 -55 -25 0 -25 1 -25 90 0 53 -4 90 -10 90 -6 0 -10 -37 -10 -90 0
-89 0 -90 -25 -90 -24 0 -25 3 -25 55 0 30 -4 55 -10 55 -5 0 -10 -25 -10 -55
0 -52 -1 -55 -25 -55 -24 0 -25 3 -25 55 0 30 -4 55 -10 55 -5 0 -10 -25 -10
-55 0 -52 -1 -55 -25 -55 -24 0 -25 3 -25 55 0 30 -4 55 -10 55 -5 0 -10 -25
-10 -56 0 -54 0 -55 -27 -52 -26 3 -28 6 -29 51 -2 68 -14 71 -14 3 0 -57 0
-57 -27 -54 -28 3 -28 4 -34 93 l-5 90 -2 -92 -2 -93 -30 0 c-30 0 -30 1 -32
58 l-1 57 -6 -55 c-6 -51 -8 -55 -33 -58 -28 -3 -28 -3 -28 53 0 35 -4 54 -10
50 -5 -3 -10 -28 -10 -56 0 -46 -2 -49 -25 -49 -24 0 -25 3 -25 55 0 30 -4 55
-10 55 -5 0 -10 -25 -10 -55 0 -52 -1 -55 -25 -55 -24 0 -25 3 -25 55 0 30 -4
55 -10 55 -5 0 -10 -25 -10 -55 0 -52 -1 -55 -25 -55 -25 0 -25 1 -25 90 0 53
-4 90 -10 90 -6 0 -10 -37 -10 -90 0 -89 0 -90 -25 -90 -24 0 -25 3 -25 55 0
30 -4 55 -10 55 -5 0 -10 -25 -10 -55 0 -52 -1 -55 -25 -55 -24 0 -25 3 -25
55 0 30 -4 55 -10 55 -5 0 -10 -25 -10 -55 0 -52 -1 -55 -25 -55 -23 0 -25 3
-25 49 0 28 -4 53 -10 56 -6 4 -10 -15 -10 -50 0 -56 0 -56 -27 -53 -26 3 -28
7 -34 58 l-6 55 -1 -57 c-2 -57 -2 -58 -32 -58 l-30 0 -2 93 -2 92 -5 -90 c-6
-89 -6 -90 -33 -93 -28 -3 -28 -3 -28 53 0 35 -4 54 -10 50 -6 -3 -10 -28 -10
-56 0 -46 -2 -49 -25 -49 -24 0 -25 3 -25 55 0 30 -4 55 -10 55 -5 0 -10 -25
-10 -55 0 -52 -1 -55 -25 -55 -24 0 -25 3 -25 55 0 30 -4 55 -10 55 -5 0 -10
-25 -10 -55 0 -52 -1 -55 -25 -55 -24 0 -25 3 -25 55 0 30 -4 55 -10 55 -5 0
-10 -25 -10 -55 0 -52 -1 -55 -25 -55 -25 0 -25 1 -25 90 0 53 -4 90 -10 90
-6 0 -10 -37 -10 -90 0 -89 0 -90 -25 -90 -24 0 -25 3 -25 55 0 30 -4 55 -10
55 -5 0 -10 -25 -10 -55 0 -52 -1 -55 -25 -55 -23 0 -25 3 -25 49 0 28 -4 53
-10 56 -6 4 -10 -15 -10 -49 0 -53 -1 -56 -25 -56 -23 0 -25 3 -25 49 0 28 -4
53 -10 56 -6 4 -10 -15 -10 -50 0 -56 0 -56 -27 -53 -26 3 -28 7 -34 58 l-5
55 -5 -55 c-4 -51 -6 -55 -31 -58 l-28 -3 0 92 c0 114 -11 112 -13 -3 -2 -83
-2 -83 -29 -86 -28 -3 -28 -2 -28 52 0 31 -4 56 -10 56 -5 0 -10 -25 -10 -55
0 -52 -1 -55 -25 -55 -24 0 -25 3 -25 55 0 30 -4 55 -10 55 -5 0 -10 -25 -10
-55 0 -52 -1 -55 -25 -55 -24 0 -25 3 -25 55 0 30 -4 55 -10 55 -5 0 -10 -25
-10 -55 0 -52 -1 -55 -25 -55 -24 0 -25 3 -25 55 0 30 -4 55 -10 55 -5 0 -10
-25 -10 -55 0 -52 -1 -55 -25 -55 -25 0 -25 1 -25 90 0 53 -4 90 -10 90 -6 0
-10 -37 -10 -90 0 -89 0 -90 -25 -90 -24 0 -25 3 -25 55 0 30 -4 55 -10 55 -5
0 -10 -25 -10 -55 0 -52 -1 -55 -25 -55 -23 0 -25 3 -25 49 0 28 -4 53 -10 56
-6 4 -10 -15 -10 -50 0 -56 0 -56 -27 -53 -26 3 -28 7 -34 58 l-5 55 -5 -55
c-4 -51 -6 -55 -29 -55 -23 0 -25 4 -31 55 l-5 55 -5 -55 c-4 -51 -6 -55 -31
-58 l-28 -3 0 91 c0 58 -4 89 -10 85 -5 -3 -10 -44 -10 -91 0 -83 0 -84 -25
-84 -24 0 -25 3 -25 55 0 30 -4 55 -10 55 -5 0 -10 -25 -10 -55 0 -52 -1 -55
-25 -55 -24 0 -25 3 -25 55 0 30 -4 55 -10 55 -5 0 -10 -25 -10 -55 0 -52 -1
-55 -25 -55 -24 0 -25 3 -25 55 0 30 -4 55 -10 55 -5 0 -10 -25 -10 -55 0 -52
-1 -55 -25 -55 -24 0 -25 3 -25 55 0 30 -4 55 -10 55 -5 0 -10 -25 -10 -55 0
-52 -1 -55 -25 -55 -25 0 -25 1 -25 90 0 53 -4 90 -10 90 -6 0 -10 -37 -10
-90 0 -89 0 -90 -25 -90 -24 0 -25 3 -25 55 0 30 -4 55 -10 55 -5 0 -10 -25
-10 -56 0 -54 0 -55 -27 -52 -26 3 -28 6 -29 51 -1 68 -14 71 -14 3 0 -57 0
-57 -27 -54 -26 3 -28 7 -34 58 l-5 55 -5 -55 c-4 -51 -6 -55 -31 -58 -28 -3
-28 -3 -28 53 0 35 -4 54 -10 50 -6 -3 -10 -28 -10 -56 0 -46 -2 -49 -25 -49
-25 0 -25 1 -25 90 0 53 -4 90 -10 90 -6 0 -10 -37 -10 -90 0 -89 0 -90 -25
-90 -24 0 -25 3 -25 55 0 30 -4 55 -10 55 -5 0 -10 -25 -10 -55 0 -52 -1 -55
-25 -55 -24 0 -25 3 -25 55 0 30 -4 55 -10 55 -5 0 -10 -25 -10 -55 0 -52 -1
-55 -25 -55 -24 0 -25 3 -25 55 0 30 -4 55 -10 55 -5 0 -10 -25 -10 -55 0 -52
-1 -55 -25 -55 -24 0 -25 3 -25 55 0 30 -4 55 -10 55 -5 0 -10 -25 -10 -55 0
-52 -1 -55 -25 -55 -25 0 -25 1 -25 90 0 53 -4 90 -10 90 -6 0 -10 -37 -10
-90 0 -89 0 -90 -25 -90 -23 0 -25 3 -25 49 0 28 -4 53 -10 56 -6 4 -10 -15
-10 -50 0 -56 0 -56 -27 -53 -26 3 -28 7 -34 58 l-6 55 -1 -57 c-2 -57 -2 -58
-32 -58 -30 0 -30 1 -32 58 l-1 57 -6 -55 c-6 -51 -8 -55 -33 -58 -28 -3 -28
-3 -28 53 0 35 -4 54 -10 50 -5 -3 -10 -28 -10 -56 0 -46 -2 -49 -25 -49 -25
0 -25 1 -25 90 0 53 -4 90 -10 90 -6 0 -10 -37 -10 -90 0 -89 0 -90 -25 -90
-24 0 -25 3 -25 55 0 30 -4 55 -10 55 -5 0 -10 -25 -10 -55 0 -52 -1 -55 -25
-55 -24 0 -25 3 -25 55 0 30 -4 55 -10 55 -5 0 -10 -25 -10 -55 0 -52 -1 -55
-25 -55 -24 0 -25 3 -25 55 0 30 -4 55 -10 55 -5 0 -10 -25 -10 -55 0 -52 -1
-55 -25 -55 -24 0 -25 3 -25 55 0 30 -4 55 -10 55 -5 0 -10 -25 -10 -55 0 -52
-1 -55 -25 -55 -25 0 -25 1 -25 84 0 47 -4 88 -10 91 -6 4 -10 -27 -10 -85 l0
-91 -27 3 c-26 3 -28 7 -34 58 l-6 55 -1 -57 c-2 -57 -2 -58 -32 -58 -30 0
-30 1 -32 58 l-1 57 -6 -55 c-6 -51 -8 -55 -33 -58 -28 -3 -28 -3 -28 54 0 68
-13 65 -14 -3 -1 -45 -3 -48 -28 -51 -28 -3 -28 -2 -28 52 0 31 -4 56 -10 56
-5 0 -10 -25 -10 -55 0 -52 -1 -55 -25 -55 -25 0 -25 1 -25 90 0 53 -4 90 -10
90 -6 0 -10 -37 -10 -90 0 -89 0 -90 -25 -90 -24 0 -25 3 -25 55 0 30 -4 55
-10 55 -5 0 -10 -25 -10 -55 0 -52 -1 -55 -25 -55 -24 0 -25 3 -25 55 0 30 -4
55 -10 55 -5 0 -10 -25 -10 -55 0 -52 -1 -55 -25 -55 -24 0 -25 3 -25 55 0 30
-4 55 -10 55 -5 0 -10 -25 -10 -55 0 -52 -1 -55 -25 -55 -24 0 -25 3 -25 55 0
30 -4 55 -10 55 -5 0 -10 -25 -10 -55 0 -52 -1 -55 -25 -55 -25 0 -25 1 -25
84 0 47 -4 88 -10 91 -6 4 -10 -27 -10 -84z"/>
</g>
</svg>
